<svg xmlns="http://www.w3.org/2000/svg" width="536" height="388" fill="none" xmlns:v="https://vecta.io/nano"><style><![CDATA[.B{fill:#fff}.C{fill:#f2f6f8}.D{stroke:#3d4853}.E{fill:#3d4853}.F{fill:#ff80ab}.G{color-interpolation-filters:sRGB}.H{flood-opacity:0}]]></style><g filter="url(#B)" class="B"><path d="M50 54a4 4 0 0 1 4-4h415a4 4 0 0 1 4 4v267a4 4 0 0 1-4 4H54a4 4 0 0 1-4-4V54z"/></g><path d="M77.404 310.612h.986v.738h-.986V313h-.908v-1.65h-3.237v-.533l3.184-4.926h.962v4.721zm-3.12 0h2.212v-3.486l-.107.195-2.105 3.291zm9.478-.195c0 .804-.184 1.452-.552 1.943s-.866.738-1.494.738c-.641 0-1.146-.204-1.514-.611v2.544h-.903v-7.314h.825l.044.586c.368-.456.879-.684 1.533-.684.635 0 1.136.239 1.504.718s.557 1.144.557 1.997v.083zm-.903-.103c0-.595-.127-1.066-.381-1.411s-.602-.517-1.045-.517c-.547 0-.957.242-1.23.727v2.525a1.33 1.33 0 0 0 1.24.722c.433 0 .776-.171 1.03-.512s.386-.856.386-1.534zm2.905-2.597l.024.586c.387-.456.91-.684 1.567-.684.739 0 1.242.283 1.509.85.176-.254.404-.459.684-.615s.617-.235 1.001-.235c1.159 0 1.748.614 1.768 1.841V313h-.903v-3.486c0-.378-.086-.66-.259-.845s-.462-.283-.869-.283c-.335 0-.614.101-.835.302s-.35.468-.386.806V313h-.908v-3.462c0-.768-.376-1.152-1.128-1.152-.592 0-.998.252-1.216.757V313h-.903v-5.283h.855zM76.56 91h-.908v-6.02l-1.821.669v-.82l2.588-.972h.142V91zm7.202-2.583c0 .804-.184 1.452-.552 1.943s-.866.737-1.494.737c-.641 0-1.146-.204-1.514-.61v2.544h-.903v-7.314h.825l.044.586c.368-.456.879-.684 1.533-.684.635 0 1.136.239 1.504.718s.557 1.144.557 1.997v.083zm-.903-.103c0-.596-.127-1.066-.381-1.411s-.602-.518-1.045-.518c-.547 0-.957.243-1.23.728v2.524c.27.482.684.723 1.24.723.433 0 .776-.171 1.03-.513s.386-.856.386-1.533zm2.905-2.598l.024.586c.387-.456.91-.684 1.567-.684.739 0 1.242.283 1.509.85.176-.254.404-.459.684-.615s.617-.234 1.001-.234c1.159 0 1.748.614 1.768 1.841V91h-.903v-3.486c0-.378-.086-.659-.259-.845s-.462-.283-.869-.283c-.335 0-.614.101-.835.303s-.35.467-.386.806V91h-.908v-3.462c0-.768-.376-1.152-1.128-1.152-.592 0-.998.252-1.216.757V91h-.903v-5.283h.855zm58.709-24.247l2.789 6.961 2.789-6.961h1.459V70h-1.125v-3.322l.105-3.586L147.689 70h-.861l-2.795-6.891.112 3.568V70h-1.125v-8.531h1.453zm8.566 5.303c0-.621.121-1.18.363-1.676s.586-.879 1.02-1.148.935-.404 1.494-.404c.863 0 1.561.299 2.092.896s.803 1.392.803 2.385v.076c0 .617-.12 1.172-.358 1.664s-.572.869-1.014 1.142-.941.41-1.511.41c-.86 0-1.557-.299-2.092-.897s-.797-1.389-.797-2.373v-.076zm1.09.129c0 .703.162 1.268.486 1.693a1.57 1.57 0 0 0 1.313.639c.547 0 .988-.215 1.312-.644s.487-1.039.487-1.816c0-.695-.166-1.258-.498-1.687a1.58 1.58 0 0 0-1.313-.65c-.535 0-.967.213-1.295.639s-.492 1.035-.492 1.828zm7.066-3.24l.035.797a2.31 2.31 0 0 1 1.899-.914c1.34 0 2.016.756 2.027 2.268V70h-1.084v-4.195c-.004-.457-.109-.795-.316-1.014s-.522-.328-.955-.328c-.352 0-.66.094-.926.281s-.473.434-.621.738V70h-1.084v-6.34h1.025zm111.899-1.266h-2.742V70h-1.12v-7.605h-2.736v-.926h6.598v.926zm4.447 6.979c-.422.496-1.041.744-1.857.744-.676 0-1.192-.195-1.547-.586s-.53-.977-.533-1.746V63.66h1.084v4.096c0 .961.39 1.441 1.171 1.441.829 0 1.379-.309 1.653-.926V63.66h1.084V70h-1.032l-.023-.627zm5.338.744c-.859 0-1.559-.281-2.098-.844s-.808-1.322-.808-2.267v-.199c0-.629.119-1.189.357-1.682a2.8 2.8 0 0 1 1.008-1.16 2.56 2.56 0 0 1 1.406-.422c.824 0 1.465.272 1.922.814s.686 1.32.686 2.332v.451h-4.295c.015.625.197 1.131.545 1.518s.796.574 1.336.574c.382 0 .707-.078.972-.234a2.44 2.44 0 0 0 .697-.621l.663.516c-.532.816-1.329 1.225-2.391 1.225zm-.135-5.684a1.44 1.44 0 0 0-1.101.481c-.297.316-.481.762-.551 1.336h3.176v-.082c-.032-.551-.18-.977-.446-1.277s-.625-.457-1.078-.457zm102.285 2.877l.164 1.125.241-1.014 1.687-5.953h.949l1.647 5.953.234 1.031.182-1.148 1.324-5.836h1.131L390.52 70h-1.026l-1.758-6.217-.134-.65-.135.65L385.645 70h-1.026l-2.062-8.531h1.125l1.347 5.842zm11.086 2.807c-.859 0-1.558-.281-2.097-.844s-.809-1.322-.809-2.267v-.199c0-.629.119-1.189.357-1.682s.579-.883 1.008-1.16a2.56 2.56 0 0 1 1.406-.422c.825 0 1.465.272 1.922.814s.686 1.32.686 2.332v.451h-4.295c.016.625.197 1.131.545 1.518s.797.574 1.336.574c.383 0 .707-.078.972-.234s.499-.363.698-.621l.662.516c-.531.816-1.328 1.225-2.391 1.225zm-.135-5.684a1.44 1.44 0 0 0-1.101.481c-.297.316-.481.762-.551 1.336h3.176v-.082c-.031-.551-.18-.977-.445-1.277s-.625-.457-1.079-.457zm3.604 2.344c0-.973.23-1.754.691-2.344s1.065-.891 1.811-.891 1.33.254 1.764.762V61h1.084v9h-.996l-.053-.68c-.434.531-1.037.797-1.811.797-.734 0-1.334-.301-1.799-.902s-.691-1.387-.691-2.355v-.082zm1.084.123c0 .719.148 1.281.445 1.688s.707.609 1.231.609a1.58 1.58 0 0 0 1.506-.926V65.36a1.59 1.59 0 0 0-1.495-.896c-.531 0-.945.205-1.242.615s-.445 1.018-.445 1.822z" fill="#78909c"/><path d="M221 86a4 4 0 0 1 4-4h102a4 4 0 0 1 4 4v172a4 4 0 0 1-4 4H225a4 4 0 0 1-4-4V86z" class="C"/><path d="M221 82h4v180h-4zm22.812 13.345c0 .975-.165 1.828-.493 2.557s-.793 1.278-1.394 1.661-1.304.575-2.106.575c-.784 0-1.479-.192-2.085-.575s-1.077-.936-1.415-1.647c-.332-.716-.503-1.543-.512-2.481v-.718c0-.957.166-1.802.499-2.536s.802-1.294 1.408-1.682 1.308-.588 2.092-.588c.797 0 1.499.194 2.105.581s1.08.941 1.408 1.675.493 1.579.493 2.55v.629zm-1.306-.643c0-1.18-.237-2.085-.711-2.714s-1.137-.95-1.989-.95c-.83 0-1.484.317-1.962.95s-.718 1.504-.732 2.625v.731c0 1.144.24 2.044.718 2.7s1.146.978 1.989.978 1.504-.308 1.969-.923.704-1.506.718-2.659v-.738zm3.698 5.298v-6.419h-1.169v-.978h1.169v-.759c0-.793.212-1.406.636-1.839s1.023-.65 1.798-.65a3.32 3.32 0 0 1 .868.116l-.068 1.025a3.65 3.65 0 0 0-.684-.062c-.41 0-.727.121-.95.362s-.335.579-.335 1.025v.779h2.734v-.629c0-.825.235-1.467.704-1.928s1.142-.691 2.003-.691c.511 0 1.155.139 1.935.417l-.212 1.066c-.57-.228-1.114-.342-1.634-.342-.542 0-.934.121-1.176.362s-.355.608-.355 1.1v.643h1.517v.978h-1.517V100h-1.265v-6.419h-2.734V100h-1.265zm9.263 0h-1.265v-7.397h1.265V100zm5.031-.895c.451 0 .845-.137 1.183-.41a1.44 1.44 0 0 0 .56-1.025h1.197c-.023.424-.169.827-.438 1.21s-.629.688-1.08.916a3.1 3.1 0 0 1-1.422.342c-1.007 0-1.809-.335-2.406-1.005s-.889-1.595-.889-2.762v-.212c0-.72.132-1.36.397-1.921a3.03 3.03 0 0 1 1.134-1.306c.497-.31 1.083-.465 1.757-.465.83 0 1.518.248 2.065.745s.845 1.142.882 1.935h-1.197c-.036-.478-.219-.871-.547-1.176s-.724-.465-1.203-.465c-.642 0-1.141.232-1.497.697s-.526 1.128-.526 2.003v.239c0 .852.175 1.508.526 1.969s.852.69 1.504.69zm7.431 1.032c-1.003 0-1.819-.328-2.448-.985s-.943-1.543-.943-2.645v-.232c0-.734.139-1.388.417-1.962.283-.579.675-1.03 1.176-1.353a2.96 2.96 0 0 1 1.64-.492c.962 0 1.709.317 2.243.95s.799 1.54.799 2.721v.526h-5.01c.018.729.23 1.319.635 1.77.411.447.93.67 1.559.67.447 0 .825-.091 1.135-.273s.581-.424.813-.725l.773.602c-.62.953-1.55 1.429-2.789 1.429zm-.158-6.631a1.68 1.68 0 0 0-1.285.561c-.346.369-.56.889-.642 1.559h3.705v-.096c-.037-.643-.21-1.139-.52-1.49s-.729-.533-1.258-.533z" fill="#40c4ff"/><path d="M101 86a4 4 0 0 1 4-4h102a4 4 0 0 1 4 4v77H101V86z" class="C"/><path fill="#ffd740" d="M101 82h4v81h-4z"/><path d="M116.703 97.345h-2.522l-.014-1.059h2.29c.378 0 .709-.064.991-.191a1.49 1.49 0 0 0 .656-.547c.16-.242.24-.529.24-.861 0-.365-.071-.661-.212-.889s-.349-.401-.636-.506c-.282-.109-.642-.164-1.08-.164h-1.941V102h-1.32v-9.953h3.261c.51 0 .966.052 1.367.157s.741.26 1.019.478.497.488.642.82.219.731.219 1.196a2.05 2.05 0 0 1-.314 1.114c-.21.328-.502.597-.875.807s-.802.344-1.299.403l-.472.321zm-.061 4.655h-2.981l.745-1.073h2.236c.419 0 .774-.073 1.066-.219s.522-.351.677-.615c.155-.269.232-.586.232-.95s-.066-.688-.198-.957-.34-.476-.622-.622-.647-.219-1.094-.219h-1.88l.014-1.059h2.57l.281.383c.478.041.884.178 1.216.41s.586.52.759.875a2.59 2.59 0 0 1 .267 1.176c0 .62-.137 1.144-.41 1.572s-.65.748-1.142.971-1.071.328-1.736.328zm6.309-6.234V102h-1.264v-7.397h1.23l.034 1.162zm2.311-1.203l-.007 1.176a1.82 1.82 0 0 0-.301-.041c-.091-.009-.196-.014-.314-.014-.292 0-.55.046-.773.137s-.412.219-.567.383a1.84 1.84 0 0 0-.369.588c-.087.223-.144.469-.171.738l-.356.205a5.86 5.86 0 0 1 .13-1.258c.091-.392.23-.738.417-1.039s.424-.542.711-.711.638-.26 1.039-.26a1.7 1.7 0 0 1 .315.034c.118.018.2.039.246.061zm4.101 7.575c-.515 0-.982-.087-1.401-.26a3.17 3.17 0 0 1-1.073-.745c-.297-.319-.524-.697-.684-1.135s-.239-.916-.239-1.436v-.287c0-.602.089-1.137.266-1.606s.42-.875.725-1.203.652-.576 1.039-.745.789-.253 1.203-.253c.529 0 .985.091 1.367.273a2.49 2.49 0 0 1 .951.766c.246.324.428.706.546 1.148s.178.916.178 1.435v.567h-5.523v-1.032h4.259v-.096c-.019-.328-.087-.647-.206-.957-.113-.31-.296-.565-.546-.766s-.593-.301-1.026-.301c-.287 0-.551.062-.793.184s-.449.296-.622.533-.307.526-.403.868-.144.736-.144 1.183v.287a3.33 3.33 0 0 0 .144.991c.1.305.244.574.431.806a2.05 2.05 0 0 0 .69.547 2.11 2.11 0 0 0 .93.198c.446 0 .825-.091 1.134-.273s.581-.426.814-.731l.766.608c-.16.242-.363.472-.609.69s-.549.397-.909.534-.777.205-1.265.205zm8.716-1.402v-3.807c0-.292-.059-.545-.178-.759s-.287-.387-.519-.506-.52-.178-.861-.178c-.32 0-.6.055-.841.164s-.424.253-.561.431-.198.369-.198.574h-1.265a1.68 1.68 0 0 1 .205-.786c.137-.26.333-.495.588-.704s.57-.383.93-.506.77-.191 1.217-.191c.537 0 1.011.091 1.422.273a2.13 2.13 0 0 1 .97.827c.237.365.356.823.356 1.374v3.446c0 .246.02.508.061.786a3.08 3.08 0 0 0 .199.718V102h-1.32c-.064-.146-.114-.34-.15-.581s-.055-.474-.055-.684zm.219-3.219l.014.889h-1.279c-.36 0-.681.03-.964.089s-.519.139-.711.253a1.2 1.2 0 0 0-.437.431c-.1.169-.15.367-.15.595s.052.444.157.635.262.344.471.458c.215.11.477.164.787.164.387 0 .729-.082 1.025-.246s.531-.364.704-.601.273-.468.287-.691l.54.609c-.032.191-.118.403-.26.635s-.33.456-.567.67a3.06 3.06 0 0 1-.834.527 2.73 2.73 0 0 1-1.08.205c-.501 0-.941-.098-1.319-.294a2.25 2.25 0 0 1-.875-.786c-.205-.333-.308-.704-.308-1.115 0-.397.077-.745.232-1.046s.379-.558.67-.759.643-.36 1.053-.465.868-.157 1.374-.157h1.47zm4.306-6.016V102h-1.271V91.5h1.271zm4.519 3.103l-3.227 3.452-1.804 1.873-.103-1.347 1.292-1.545 2.297-2.434h1.545zM145.968 102l-2.639-3.527.656-1.128 3.473 4.655h-1.49z" fill="#fcb316"/><path d="M341 86a4 4 0 0 1 4-4h102a4 4 0 0 1 4 4v65a4 4 0 0 1-4 4H345a4 4 0 0 1-4-4V86z" class="C"/><path d="M341 82h4v73h-4zm14.773 16.992l1.976-6.945h.957l-.554 2.7-2.126 7.253h-.95l.697-3.008zm-2.044-6.945l1.573 6.809.471 3.144h-.943l-2.413-9.953h1.312zm7.534 6.802l1.538-6.802h1.319L361.714 102h-.943l.492-3.151zm-2.413-6.802l1.921 6.945.697 3.008h-.95l-2.051-7.253-.561-2.7h.944zm5.988 6.337v-.157a4.58 4.58 0 0 1 .232-1.483c.155-.46.379-.859.67-1.196a2.99 2.99 0 0 1 1.06-.793c.415-.191.879-.287 1.394-.287s.987.096 1.402.287a2.98 2.98 0 0 1 1.066.793c.296.337.522.736.677 1.196a4.58 4.58 0 0 1 .232 1.483v.157a4.58 4.58 0 0 1-.232 1.483c-.155.456-.381.855-.677 1.196s-.645.602-1.059.793-.875.281-1.395.281-.987-.094-1.401-.281a3.11 3.11 0 0 1-1.067-.793 3.5 3.5 0 0 1-.67-1.196 4.58 4.58 0 0 1-.232-1.483zm1.265-.157v.157a4.11 4.11 0 0 0 .129 1.046 2.77 2.77 0 0 0 .39.861c.178.251.399.449.663.595s.572.212.923.212.649-.071.909-.212a1.9 1.9 0 0 0 .656-.595c.174-.251.303-.538.39-.861s.137-.677.137-1.046v-.157a3.79 3.79 0 0 0-.137-1.032 2.68 2.68 0 0 0-.396-.868c-.174-.255-.392-.456-.657-.602-.259-.146-.565-.219-.916-.219s-.651.073-.916.219a1.97 1.97 0 0 0-.656.602c-.178.256-.303.54-.39.868s-.129.668-.129 1.032zm8.319-2.461V102h-1.265v-7.397h1.231l.034 1.162zm2.31-1.203l-.006 1.176a1.82 1.82 0 0 0-.301-.041c-.091-.009-.196-.014-.315-.014-.291 0-.549.046-.772.137s-.413.219-.567.383a1.86 1.86 0 0 0-.37.588 2.87 2.87 0 0 0-.171.738l-.355.205c0-.447.043-.866.13-1.258s.23-.738.417-1.039.424-.542.711-.711.638-.26 1.039-.26a1.68 1.68 0 0 1 .314.034.92.92 0 0 1 .246.061zm2.441-3.062V102h-1.272V91.5h1.272zm4.518 3.103l-3.226 3.452-1.805 1.873-.102-1.347 1.292-1.545 2.296-2.434h1.545zM382.536 102l-2.639-3.527.657-1.128 3.472 4.655h-1.49z" class="F"/><path d="M101 163h110v146a4 4 0 0 1-4 4H105a4 4 0 0 1-4-4V163z" class="C"/><path d="M101 163h4v150h-4zm14.773 9.992l1.976-6.945h.957l-.554 2.7-2.126 7.253h-.95l.697-3.008zm-2.044-6.945l1.573 6.808.471 3.145h-.943l-2.413-9.953h1.312zm7.534 6.802l1.538-6.802h1.319L121.714 176h-.943l.492-3.151zm-2.413-6.802l1.921 6.945.697 3.008h-.95l-2.051-7.253-.561-2.7h.944zm5.988 6.337v-.157a4.58 4.58 0 0 1 .232-1.484c.155-.46.379-.859.67-1.196a2.99 2.99 0 0 1 1.06-.793c.415-.192.879-.287 1.394-.287.52 0 .987.095 1.402.287s.774.451 1.066.793a3.58 3.58 0 0 1 .677 1.196 4.58 4.58 0 0 1 .232 1.484v.157c0 .533-.077 1.027-.232 1.483s-.381.855-.677 1.196-.645.602-1.059.793-.875.281-1.395.281-.987-.094-1.401-.281a3.11 3.11 0 0 1-1.067-.793c-.291-.341-.515-.74-.67-1.196s-.232-.95-.232-1.483zm1.265-.157v.157c0 .369.043.718.129 1.046s.217.61.39.861a1.93 1.93 0 0 0 .663.595c.264.146.572.212.923.212s.649-.071.909-.212a1.9 1.9 0 0 0 .656-.595c.174-.251.303-.538.39-.861a3.9 3.9 0 0 0 .137-1.046v-.157c0-.365-.046-.709-.137-1.033s-.219-.617-.396-.868a1.88 1.88 0 0 0-.657-.601c-.259-.146-.565-.219-.916-.219s-.651.073-.916.219c-.259.145-.478.346-.656.601s-.303.54-.39.868a4.01 4.01 0 0 0-.129 1.033zm8.319-2.461V176h-1.265v-7.396h1.231l.034 1.162zm2.31-1.204l-.006 1.176a1.85 1.85 0 0 0-.301-.041c-.091-.009-.196-.013-.315-.013-.291 0-.549.045-.772.136s-.413.219-.567.383-.278.36-.37.588a2.87 2.87 0 0 0-.171.738l-.355.205c0-.446.043-.866.13-1.257s.23-.739.417-1.039c.187-.306.424-.543.711-.711.291-.174.638-.26 1.039-.26a1.66 1.66 0 0 1 .314.034c.119.018.201.039.246.061zm2.441-3.062V176h-1.272v-10.5h1.272zm4.518 3.104l-3.226 3.452-1.805 1.873-.102-1.347 1.292-1.545 2.296-2.433h1.545zM142.536 176l-2.639-3.527.657-1.128 3.472 4.655h-1.49z" class="F"/><g filter="url(#C)" class="B"><path d="M395 253a4 4 0 0 1 4-4h83a4 4 0 0 1 4 4v81a4 4 0 0 1-4 4h-83a4 4 0 0 1-4-4v-81z"/></g><mask id="A" maskUnits="userSpaceOnUse" x="426" y="263" width="30" height="30" mask-type="alpha"><circle cx="441" cy="278" r="14.5" fill="#84d2f6" class="D"/></mask><g mask="url(#A)" class="D"><path d="M438 284.5h6a6.5 6.5 0 0 1 6.5 6.5v4a6.5 6.5 0 0 1-6.5 6.5h-6a6.5 6.5 0 0 1-6.5-6.5v-4a6.5 6.5 0 0 1 6.5-6.5z" class="B"/><circle cx="441" cy="276" r="5.5" class="B"/><circle cx="441" cy="278" r="14.5"/></g><rect x="407" y="302" width="67" height="22" rx="3" fill="#47ce4f"/><path d="M420.063 314.423h1.272a3.14 3.14 0 0 1-.472 1.381c-.255.405-.617.724-1.087.957-.464.232-1.041.348-1.729.348-.515 0-.98-.086-1.395-.259s-.77-.429-1.066-.752c-.296-.328-.524-.723-.684-1.183s-.239-.975-.239-1.545v-.697c0-.57.08-1.085.239-1.545s.39-.855.691-1.183a3 3 0 0 1 1.087-.752c.428-.177.907-.266 1.435-.266.666 0 1.226.116 1.682.348s.811.547 1.066.957.417.882.472 1.415h-1.272c-.045-.35-.139-.651-.28-.902s-.346-.442-.615-.574-.62-.205-1.053-.205c-.36 0-.677.061-.95.184a1.76 1.76 0 0 0-.69.534c-.183.232-.322.515-.417.847s-.137.711-.137 1.135v.704c0 .401.041.768.123 1.101.087.328.216.613.39.854a1.75 1.75 0 0 0 .663.561c.269.127.585.191.95.191.456 0 .82-.064 1.094-.191s.48-.315.622-.561.246-.551.3-.902zm7.985 1.538V317h-4.293v-1.039h4.293zm-3.986-6.925V317h-1.264v-7.964h1.264zm11.779 3.76v.451c0 .602-.082 1.142-.246 1.62a3.49 3.49 0 0 1-.704 1.217 3.08 3.08 0 0 1-1.101.766c-.424.173-.898.259-1.422.259-.515 0-.986-.086-1.415-.259-.424-.178-.793-.433-1.107-.766s-.549-.743-.718-1.217-.253-1.018-.253-1.62v-.451c0-.602.084-1.139.253-1.613s.406-.887.711-1.224.677-.592 1.1-.766c.429-.177.901-.266 1.415-.266.529 0 1.005.089 1.429.266s.795.429 1.101.766.547.745.711 1.224.246 1.011.246 1.613zm-1.251.451v-.465c0-.451-.05-.85-.151-1.196a2.47 2.47 0 0 0-.437-.875c-.191-.237-.426-.417-.704-.54s-.593-.185-.944-.185a2.21 2.21 0 0 0-.916.185c-.273.123-.508.303-.704.54-.191.237-.339.529-.444.875s-.157.745-.157 1.196v.465c0 .451.052.852.157 1.203a2.56 2.56 0 0 0 .451.882c.196.237.431.417.704.54.278.123.586.185.923.185.356 0 .67-.062.944-.185a1.88 1.88 0 0 0 .697-.54c.191-.242.335-.535.43-.882.101-.351.151-.752.151-1.203zm7.977 1.176h1.272a3.14 3.14 0 0 1-.472 1.381c-.255.405-.617.724-1.087.957-.465.232-1.041.348-1.729.348-.515 0-.98-.086-1.395-.259s-.77-.429-1.066-.752c-.296-.328-.524-.723-.684-1.183s-.239-.975-.239-1.545v-.697c0-.57.08-1.085.239-1.545s.39-.855.691-1.183a2.99 2.99 0 0 1 1.087-.752c.428-.177.906-.266 1.435-.266.666 0 1.226.116 1.682.348s.811.547 1.066.957.417.882.472 1.415h-1.272c-.045-.35-.139-.651-.28-.902s-.346-.442-.615-.574-.62-.205-1.053-.205c-.36 0-.677.061-.95.184a1.76 1.76 0 0 0-.69.534c-.183.232-.322.515-.417.847s-.137.711-.137 1.135v.704c0 .401.041.768.123 1.101.086.328.216.613.39.854a1.75 1.75 0 0 0 .663.561 2.2 2.2 0 0 0 .95.191c.456 0 .82-.064 1.094-.191s.48-.315.622-.561.246-.551.3-.902zm3.999-5.387V317h-1.264v-7.964h1.264zm5.155 0l-3.521 3.808-1.969 1.9-.246-1.285 1.47-1.613 2.707-2.81h1.559zM450.408 317l-3.028-3.801.841-.902 3.725 4.703h-1.538zm7.308-7.964V317h-1.265v-7.964h1.265zm8.654 0V317h-1.265l-4.128-5.988V317h-1.265v-7.964h1.265l4.128 5.988v-5.988h1.265z" class="B"/><path fill-rule="evenodd" d="M441.845 136.698l.004-.005-.071-.04c-.011-.005-.019-.013-.03-.016l-13.095-6.55-.004.004c-.068-.054-.152-.091-.247-.091-.222 0-.402.177-.402.394v13.213c0 .217.18.393.402.393.095 0 .179-.036.247-.09l.004.004 13.095-6.55c.011-.004.019-.011.029-.017l.072-.039-.004-.005c.092-.072.155-.178.155-.303s-.063-.231-.155-.302z" class="E"/><g filter="url(#D)" class="B"><path d="M176 253a4 4 0 0 1 4-4h191a4 4 0 0 1 4 4v81a4 4 0 0 1-4 4H180a4 4 0 0 1-4-4v-81z"/></g><path d="M208.773 267.992l1.976-6.945h.957l-.554 2.7-2.126 7.253h-.95l.697-3.008zm-2.044-6.945l1.573 6.808.471 3.145h-.943l-2.413-9.953h1.312zm7.534 6.802l1.538-6.802h1.319L214.714 271h-.943l.492-3.151zm-2.413-6.802l1.921 6.945.697 3.008h-.95l-2.051-7.253-.561-2.7h.944zm5.988 6.337v-.157a4.58 4.58 0 0 1 .232-1.484c.155-.46.379-.859.67-1.196a2.99 2.99 0 0 1 1.06-.793c.415-.192.879-.287 1.394-.287.52 0 .987.095 1.402.287.419.187.774.451 1.066.793.296.337.522.736.677 1.196a4.58 4.58 0 0 1 .232 1.484v.157c0 .533-.077 1.027-.232 1.483s-.381.855-.677 1.196-.645.602-1.059.793-.875.281-1.395.281-.987-.094-1.401-.281-.771-.455-1.067-.793-.515-.74-.67-1.196-.232-.95-.232-1.483zm1.265-.157v.157c0 .369.043.718.129 1.046.087.323.217.61.39.861s.399.449.663.595c.264.141.572.212.923.212s.649-.071.909-.212a1.9 1.9 0 0 0 .656-.595c.174-.251.303-.538.39-.861a3.9 3.9 0 0 0 .137-1.046v-.157c0-.365-.046-.709-.137-1.033s-.219-.617-.396-.868a1.88 1.88 0 0 0-.657-.601c-.259-.146-.565-.219-.916-.219-.346 0-.651.073-.916.219-.259.145-.478.346-.656.601s-.303.54-.39.868a4.01 4.01 0 0 0-.129 1.033zm8.319-2.461V271h-1.265v-7.396h1.231l.034 1.162zm2.31-1.204l-.006 1.176a1.85 1.85 0 0 0-.301-.041c-.091-.009-.196-.013-.315-.013-.291 0-.549.045-.772.136s-.413.219-.567.383-.278.36-.37.588a2.87 2.87 0 0 0-.171.738l-.355.205c0-.446.043-.866.13-1.257s.23-.739.417-1.039c.187-.306.424-.543.711-.711.291-.174.638-.26 1.039-.26a1.66 1.66 0 0 1 .314.034c.119.018.201.039.246.061zm2.441-3.062V271h-1.272v-10.5h1.272zm4.518 3.104l-3.226 3.452-1.805 1.873-.102-1.347 1.292-1.545 2.296-2.433h1.545zM235.536 271l-2.639-3.527.657-1.128 3.472 4.655h-1.49z" class="E"/><path d="M267.502 265.939l-.867-.222.427-4.248h4.377v1.002h-3.457l-.257 2.32a3.17 3.17 0 0 1 .591-.252c.243-.078.52-.117.832-.117.395 0 .748.068 1.061.205a2.18 2.18 0 0 1 .797.574c.223.25.392.551.51.903s.175.744.175 1.177c0 .41-.056.787-.17 1.131a2.52 2.52 0 0 1-.498.902c-.222.254-.503.452-.843.592s-.733.211-1.19.211c-.344 0-.67-.047-.978-.14a2.54 2.54 0 0 1-.821-.44 2.39 2.39 0 0 1-.586-.738c-.148-.297-.242-.645-.281-1.043h1.031c.047.32.141.59.282.808a1.37 1.37 0 0 0 .551.498c.23.11.498.165.802.165a1.65 1.65 0 0 0 .686-.135 1.37 1.37 0 0 0 .504-.387c.136-.168.24-.371.31-.609s.112-.506.112-.803c0-.27-.038-.52-.112-.75a1.71 1.71 0 0 0-.334-.604 1.47 1.47 0 0 0-.533-.398c-.211-.098-.453-.146-.727-.146-.363 0-.638.048-.826.146a3.18 3.18 0 0 0-.568.398zm5.449 3.487c0-.184.057-.338.17-.463s.285-.193.504-.193.385.064.498.193a.65.65 0 0 1 .176.463c0 .179-.059.332-.176.457s-.279.187-.498.187-.387-.062-.504-.187a.66.66 0 0 1-.17-.457zm.006-5.174c0-.184.057-.338.17-.463s.285-.193.504-.193.385.064.498.193a.65.65 0 0 1 .176.463c0 .18-.059.332-.176.457s-.279.187-.498.187-.387-.062-.504-.187a.64.64 0 0 1-.17-.457zm8.186.803v1.3c0 .7-.063 1.29-.188 1.77s-.305.867-.539 1.16-.518.506-.85.639-.699.193-1.113.193a3.19 3.19 0 0 1-.908-.123 2.17 2.17 0 0 1-.75-.392c-.219-.184-.406-.422-.563-.715s-.275-.649-.357-1.067-.123-.906-.123-1.465v-1.3c0-.7.062-1.285.187-1.758s.311-.852.545-1.137a1.99 1.99 0 0 1 .844-.621c.332-.125.703-.187 1.113-.187.332 0 .637.041.914.123a2.17 2.17 0 0 1 .75.38 2.16 2.16 0 0 1 .557.692c.152.289.276.635.358 1.049s.123.9.123 1.459zm-1.09 1.476v-1.658c0-.383-.024-.719-.071-1.008a3.43 3.43 0 0 0-.193-.75c-.086-.207-.195-.375-.328-.504a1.16 1.16 0 0 0-.451-.281c-.168-.062-.358-.094-.569-.094-.257 0-.486.049-.685.147s-.367.244-.504.451-.234.478-.305.814-.105.745-.105 1.225v1.658c0 .383.021.721.064 1.014s.115.547.205.762.2.384.328.521.278.238.446.305.361.094.568.094c.266 0 .498-.051.697-.153a1.26 1.26 0 0 0 .498-.474c.137-.219.239-.498.305-.838s.1-.754.1-1.231zm7.84-1.476v1.3c0 .7-.063 1.29-.188 1.77s-.305.867-.539 1.16-.518.506-.85.639-.699.193-1.113.193a3.19 3.19 0 0 1-.908-.123 2.17 2.17 0 0 1-.75-.392c-.219-.184-.406-.422-.563-.715s-.275-.649-.357-1.067-.123-.906-.123-1.465v-1.3c0-.7.062-1.285.187-1.758s.311-.852.545-1.137a1.99 1.99 0 0 1 .844-.621c.332-.125.703-.187 1.113-.187.332 0 .637.041.914.123a2.17 2.17 0 0 1 .75.38 2.16 2.16 0 0 1 .557.692c.152.289.276.635.358 1.049s.123.9.123 1.459zm-1.09 1.476v-1.658c0-.383-.024-.719-.071-1.008a3.43 3.43 0 0 0-.193-.75c-.086-.207-.195-.375-.328-.504a1.16 1.16 0 0 0-.451-.281c-.168-.062-.358-.094-.569-.094-.257 0-.486.049-.685.147s-.367.244-.504.451-.234.478-.305.814-.105.745-.105 1.225v1.658c0 .383.021.721.064 1.014s.115.547.205.762.2.384.328.521.278.238.446.305.361.094.568.094c.266 0 .498-.051.697-.153a1.26 1.26 0 0 0 .498-.474c.137-.219.239-.498.305-.838s.1-.754.1-1.231zm-17.11 21.891V297h-1.084v-7.225l-2.185.797v-.978l3.099-1.172h.17zm3.258 8.004c0-.184.057-.338.17-.463s.285-.193.504-.193.385.064.498.193a.65.65 0 0 1 .176.463c0 .179-.059.332-.176.457s-.279.187-.498.187-.387-.062-.504-.187a.66.66 0 0 1-.17-.457zm.006-5.174c0-.184.057-.338.17-.463s.285-.193.504-.193.385.064.498.193a.65.65 0 0 1 .176.463c0 .18-.059.332-.176.457s-.279.187-.498.187-.387-.062-.504-.187a.64.64 0 0 1-.17-.457zm8.186.803v1.3c0 .7-.063 1.29-.188 1.77s-.305.867-.539 1.16-.518.506-.85.639-.699.193-1.113.193a3.19 3.19 0 0 1-.908-.123 2.17 2.17 0 0 1-.75-.392c-.219-.184-.406-.422-.563-.715s-.275-.649-.357-1.067-.123-.906-.123-1.465v-1.3c0-.7.062-1.285.187-1.758s.311-.852.545-1.137a1.99 1.99 0 0 1 .844-.621c.332-.125.703-.187 1.113-.187.332 0 .637.041.914.123a2.17 2.17 0 0 1 .75.38 2.16 2.16 0 0 1 .557.692c.152.289.276.635.358 1.049s.123.9.123 1.459zm-1.09 1.476v-1.658c0-.383-.024-.719-.071-1.008a3.43 3.43 0 0 0-.193-.75c-.086-.207-.195-.375-.328-.504a1.16 1.16 0 0 0-.451-.281c-.168-.062-.358-.094-.569-.094-.257 0-.486.049-.685.147s-.367.244-.504.451-.234.478-.305.814-.105.745-.105 1.225v1.658c0 .383.021.721.064 1.014s.115.547.205.762.2.384.328.521.278.238.446.305.361.094.568.094c.266 0 .498-.051.697-.153a1.26 1.26 0 0 0 .498-.474c.137-.219.239-.498.305-.838s.1-.754.1-1.231zm7.84-1.476v1.3c0 .7-.063 1.29-.188 1.77s-.305.867-.539 1.16-.518.506-.85.639-.699.193-1.113.193a3.19 3.19 0 0 1-.908-.123 2.17 2.17 0 0 1-.75-.392c-.219-.184-.406-.422-.563-.715s-.275-.649-.357-1.067-.123-.906-.123-1.465v-1.3c0-.7.062-1.285.187-1.758s.311-.852.545-1.137a1.99 1.99 0 0 1 .844-.621c.332-.125.703-.187 1.113-.187.332 0 .637.041.914.123a2.17 2.17 0 0 1 .75.38 2.16 2.16 0 0 1 .557.692c.152.289.276.635.358 1.049s.123.9.123 1.459zm-1.09 1.476v-1.658c0-.383-.024-.719-.071-1.008a3.43 3.43 0 0 0-.193-.75c-.086-.207-.195-.375-.328-.504a1.16 1.16 0 0 0-.451-.281c-.168-.062-.358-.094-.569-.094-.257 0-.486.049-.685.147s-.367.244-.504.451-.234.478-.305.814-.105.745-.105 1.225v1.658c0 .383.021.721.064 1.014s.115.547.205.762.2.384.328.521.278.238.446.305.361.094.568.094c.266 0 .498-.051.697-.153a1.26 1.26 0 0 0 .498-.474c.137-.219.239-.498.305-.838s.1-.754.1-1.231z" fill="#607d8b"/><path d="M278.424 320.928v.89h-2.86v-.89h2.86zm38-55v.89h-2.86v-.89h2.86zm0 27v.89h-2.86v-.89h2.86z" fill="#c6d2d9"/><path d="M309.896 322.129v.891h-6.164v-.639l3.821-5.912h.885l-.95 1.711-2.525 3.949h4.933zm-1.189-5.66V325h-1.084v-8.531h1.084zm2.244 7.957c0-.184.057-.338.17-.463s.285-.193.504-.193.385.064.498.193a.65.65 0 0 1 .176.463c0 .179-.059.332-.176.457s-.279.187-.498.187-.387-.062-.504-.187a.66.66 0 0 1-.17-.457zm.006-5.174c0-.184.057-.338.17-.463s.285-.193.504-.193.385.064.498.193a.65.65 0 0 1 .176.463c0 .18-.059.332-.176.457s-.279.187-.498.187-.387-.062-.504-.187a.64.64 0 0 1-.17-.457zm8.186.803v1.3c0 .7-.063 1.29-.188 1.77s-.305.867-.539 1.16-.518.506-.85.639-.699.193-1.113.193a3.19 3.19 0 0 1-.908-.123 2.17 2.17 0 0 1-.75-.392c-.219-.184-.406-.422-.563-.715s-.275-.649-.357-1.067-.123-.906-.123-1.465v-1.3c0-.7.062-1.285.187-1.758s.311-.852.545-1.137a1.99 1.99 0 0 1 .844-.621c.332-.125.703-.187 1.113-.187.332 0 .637.041.914.123a2.17 2.17 0 0 1 .75.38 2.16 2.16 0 0 1 .557.692c.152.289.276.635.358 1.049s.123.9.123 1.459zm-1.09 1.476v-1.658c0-.383-.024-.719-.071-1.008a3.43 3.43 0 0 0-.193-.75c-.086-.207-.195-.375-.328-.504a1.16 1.16 0 0 0-.451-.281c-.168-.062-.358-.094-.569-.094-.257 0-.486.049-.685.147s-.367.244-.504.451-.234.478-.305.814-.105.745-.105 1.225v1.658c0 .383.021.721.064 1.014s.115.547.205.762.2.384.328.521.278.238.446.305.361.094.568.094c.266 0 .498-.051.697-.153a1.26 1.26 0 0 0 .498-.474c.137-.219.239-.498.305-.838s.1-.754.1-1.231zm7.84-1.476v1.3c0 .7-.063 1.29-.188 1.77s-.305.867-.539 1.16-.518.506-.85.639-.699.193-1.113.193a3.19 3.19 0 0 1-.908-.123 2.17 2.17 0 0 1-.75-.392c-.219-.184-.406-.422-.563-.715s-.275-.649-.357-1.067-.123-.906-.123-1.465v-1.3c0-.7.062-1.285.187-1.758s.311-.852.545-1.137a1.99 1.99 0 0 1 .844-.621c.332-.125.703-.187 1.113-.187.332 0 .637.041.914.123a2.17 2.17 0 0 1 .75.38 2.16 2.16 0 0 1 .557.692c.152.289.276.635.358 1.049s.123.9.123 1.459zm-1.09 1.476v-1.658c0-.383-.024-.719-.071-1.008a3.43 3.43 0 0 0-.193-.75c-.086-.207-.195-.375-.328-.504a1.16 1.16 0 0 0-.451-.281c-.168-.062-.358-.094-.569-.094-.257 0-.486.049-.685.147s-.367.244-.504.451-.234.478-.305.814-.105.745-.105 1.225v1.658c0 .383.021.721.064 1.014s.115.547.205.762.2.384.328.521.278.238.446.305.361.094.568.094c.266 0 .498-.051.697-.153a1.26 1.26 0 0 0 .498-.474c.137-.219.239-.498.305-.838s.1-.754.1-1.231zm18.918-52.422V270h-5.584v-.779l2.795-3.112.797-.972c.191-.27.324-.51.398-.721a1.91 1.91 0 0 0 .117-.656c0-.281-.058-.535-.176-.762a1.32 1.32 0 0 0-.504-.551 1.52 1.52 0 0 0-.808-.205c-.379 0-.695.074-.949.223a1.37 1.37 0 0 0-.563.609c-.125.262-.187.563-.187.903h-1.084c0-.481.105-.92.316-1.319a2.32 2.32 0 0 1 .938-.949c.415-.234.923-.357 1.529-.357.539 0 1 .095 1.383.287s.675.453.879.797.31.738.31 1.195a2.4 2.4 0 0 1-.129.762c-.082.253-.197.507-.345.761a5.99 5.99 0 0 1-.51.75l-.615.727-2.286 2.478h4.278zm1.23.317c0-.184.057-.338.17-.463s.285-.193.504-.193.385.064.498.193a.65.65 0 0 1 .176.463c0 .179-.059.332-.176.457s-.279.187-.498.187-.387-.062-.504-.187a.66.66 0 0 1-.17-.457zm.006-5.174c0-.184.057-.338.17-.463s.285-.193.504-.193.385.064.498.193a.65.65 0 0 1 .176.463c0 .18-.059.332-.176.457s-.279.187-.498.187-.387-.062-.504-.187a.64.64 0 0 1-.17-.457zm8.186.803v1.3c0 .7-.063 1.29-.188 1.77s-.305.867-.539 1.16-.518.506-.85.639-.699.193-1.113.193a3.19 3.19 0 0 1-.908-.123 2.17 2.17 0 0 1-.75-.392c-.219-.184-.406-.422-.563-.715s-.275-.649-.357-1.067-.123-.906-.123-1.465v-1.3c0-.7.062-1.285.187-1.758s.311-.852.545-1.137a1.99 1.99 0 0 1 .844-.621c.332-.125.703-.187 1.113-.187.332 0 .637.041.914.123a2.17 2.17 0 0 1 .75.38 2.16 2.16 0 0 1 .557.692c.152.289.276.635.358 1.049s.123.9.123 1.459zm-1.09 1.476v-1.658c0-.383-.024-.719-.071-1.008a3.43 3.43 0 0 0-.193-.75c-.086-.207-.195-.375-.328-.504a1.16 1.16 0 0 0-.451-.281c-.168-.062-.358-.094-.569-.094-.257 0-.486.049-.685.147s-.367.244-.504.451-.234.478-.305.814-.105.745-.105 1.225v1.658c0 .383.021.721.064 1.014s.115.547.205.762.2.384.328.521.278.238.446.305.361.094.568.094c.266 0 .498-.051.697-.153a1.26 1.26 0 0 0 .498-.474c.137-.219.239-.498.305-.838s.1-.754.1-1.231zm7.84-1.476v1.3c0 .7-.063 1.29-.188 1.77s-.305.867-.539 1.16-.518.506-.85.639-.699.193-1.113.193a3.19 3.19 0 0 1-.908-.123 2.17 2.17 0 0 1-.75-.392c-.219-.184-.406-.422-.563-.715s-.275-.649-.357-1.067-.123-.906-.123-1.465v-1.3c0-.7.062-1.285.187-1.758s.311-.852.545-1.137a1.99 1.99 0 0 1 .844-.621c.332-.125.703-.187 1.113-.187.332 0 .637.041.914.123a2.17 2.17 0 0 1 .75.38 2.16 2.16 0 0 1 .557.692c.152.289.276.635.358 1.049s.123.9.123 1.459zm-1.09 1.476v-1.658c0-.383-.024-.719-.071-1.008a3.43 3.43 0 0 0-.193-.75c-.086-.207-.195-.375-.328-.504a1.16 1.16 0 0 0-.451-.281c-.168-.062-.358-.094-.569-.094-.257 0-.486.049-.685.147s-.367.244-.504.451-.234.478-.305.814-.105.745-.105 1.225v1.658c0 .383.021.721.064 1.014s.115.547.205.762.2.384.328.521.278.238.446.305.361.094.568.094c.266 0 .498-.051.697-.153a1.26 1.26 0 0 0 .498-.474c.137-.219.239-.498.305-.838s.1-.754.1-1.231z" fill="#607d8b"/><path d="M350.424 292.928v.89h-2.86v-.89h2.86zm0 28v.89h-2.86v-.89h2.86z" fill="#c6d2d9"/><circle cx="193" cy="265.654" r="4" class="F"/><path d="M209.703 293.345h-2.522l-.014-1.06h2.29c.378 0 .709-.064.991-.191s.502-.31.656-.547c.16-.242.24-.529.24-.861 0-.365-.071-.661-.212-.889-.137-.233-.349-.401-.636-.506s-.642-.164-1.08-.164h-1.941V298h-1.32v-9.953h3.261c.51 0 .966.052 1.367.157.401.1.741.26 1.019.479a2.03 2.03 0 0 1 .642.82c.146.333.219.731.219 1.196a2.05 2.05 0 0 1-.314 1.114 2.42 2.42 0 0 1-.875.807c-.37.21-.802.344-1.299.403l-.472.322zm-.061 4.655h-2.981l.745-1.073h2.236c.419 0 .774-.073 1.066-.219s.522-.351.677-.615.232-.586.232-.95c0-.37-.066-.689-.198-.957s-.34-.477-.622-.623-.647-.218-1.094-.218h-1.88l.014-1.06h2.57l.281.383c.478.041.884.178 1.216.41a2.23 2.23 0 0 1 .759.875c.178.356.267.748.267 1.176 0 .62-.137 1.144-.41 1.572s-.65.748-1.142.971-1.071.328-1.736.328zm6.309-6.234V298h-1.264v-7.396h1.23l.034 1.162zm2.311-1.204l-.007 1.176a1.85 1.85 0 0 0-.301-.041c-.091-.009-.196-.013-.314-.013-.292 0-.55.045-.773.136a1.6 1.6 0 0 0-.567.383c-.155.164-.278.36-.369.588a2.79 2.79 0 0 0-.171.738l-.356.205a5.85 5.85 0 0 1 .13-1.257c.091-.392.23-.739.417-1.039.187-.306.424-.543.711-.711.292-.174.638-.26 1.039-.26a1.68 1.68 0 0 1 .315.034c.118.018.2.039.246.061zm4.101 7.575c-.515 0-.982-.087-1.401-.26a3.17 3.17 0 0 1-1.073-.745c-.297-.319-.524-.697-.684-1.135a4.17 4.17 0 0 1-.239-1.435v-.288c0-.601.089-1.137.266-1.606s.42-.875.725-1.203.652-.577 1.039-.745a2.98 2.98 0 0 1 1.203-.253c.529 0 .985.091 1.367.273.388.183.705.438.951.766a3.26 3.26 0 0 1 .546 1.148c.119.438.178.916.178 1.436v.567h-5.523v-1.032h4.259v-.096c-.019-.328-.087-.647-.206-.957a1.71 1.71 0 0 0-.546-.765c-.251-.201-.593-.301-1.026-.301-.287 0-.551.061-.793.184s-.449.297-.622.534-.307.526-.403.868-.144.736-.144 1.182v.288c0 .35.048.681.144.991s.244.574.431.806a2.05 2.05 0 0 0 .69.547 2.11 2.11 0 0 0 .93.198c.446 0 .825-.091 1.134-.273s.581-.426.814-.731l.766.608c-.16.242-.363.472-.609.69s-.549.397-.909.534-.777.205-1.265.205zm8.716-1.402v-3.807c0-.292-.059-.545-.178-.759s-.287-.387-.519-.506-.52-.178-.861-.178c-.32 0-.6.055-.841.164s-.424.253-.561.431-.198.369-.198.574h-1.265c0-.264.069-.526.205-.786s.333-.494.588-.704.57-.383.93-.506.77-.191 1.217-.191c.537 0 1.011.091 1.422.273s.738.458.97.827.356.823.356 1.374v3.446c0 .246.02.508.061.786a3.08 3.08 0 0 0 .199.718V298h-1.32c-.064-.146-.114-.34-.15-.581s-.055-.474-.055-.684zm.219-3.219l.014.888h-1.279c-.36 0-.681.03-.964.089a2.22 2.22 0 0 0-.711.253c-.191.114-.337.258-.437.431s-.15.367-.15.594c0 .233.052.445.157.636s.262.344.471.458c.215.11.477.164.787.164.387 0 .729-.082 1.025-.246s.531-.364.704-.601.273-.467.287-.691l.54.609c-.032.191-.118.403-.26.635s-.33.456-.567.67a3.06 3.06 0 0 1-.834.527 2.73 2.73 0 0 1-1.08.205c-.501 0-.941-.098-1.319-.294a2.25 2.25 0 0 1-.875-.786c-.205-.333-.308-.704-.308-1.115 0-.396.077-.745.232-1.046a2.02 2.02 0 0 1 .67-.758c.292-.205.643-.36 1.053-.465s.868-.157 1.374-.157h1.47zm4.306-6.016V298h-1.271v-10.5h1.271zm4.519 3.104l-3.227 3.452-1.804 1.873-.103-1.347 1.292-1.545 2.297-2.433h1.545zM238.968 298l-2.639-3.527.656-1.128 3.473 4.655h-1.49z" class="E"/><circle cx="193.367" cy="293" r="4" fill="#ffd740"/><path d="M213.818 319.709v.629c0 .747-.093 1.417-.28 2.01s-.456 1.096-.807 1.51a3.49 3.49 0 0 1-1.264.951c-.488.218-1.035.328-1.641.328-.588 0-1.128-.11-1.62-.328a3.64 3.64 0 0 1-1.271-.951c-.356-.414-.632-.918-.828-1.51s-.294-1.263-.294-2.01v-.629c0-.747.096-1.415.288-2.003s.471-1.096.827-1.511a3.55 3.55 0 0 1 1.264-.957c.493-.218 1.033-.328 1.62-.328.607 0 1.153.11 1.641.328s.914.538 1.265.957.626.919.813 1.511.287 1.256.287 2.003zm-1.305.629v-.643c0-.592-.062-1.116-.185-1.572s-.294-.838-.526-1.148-.517-.545-.855-.704c-.332-.16-.711-.24-1.135-.24-.41 0-.781.08-1.114.24s-.61.394-.847.704-.413.692-.54 1.148-.192.98-.192 1.572v.643c0 .597.064 1.126.192 1.586a3.42 3.42 0 0 0 .546 1.155 2.42 2.42 0 0 0 .855.704c.333.16.704.239 1.114.239.429 0 .809-.079 1.142-.239a2.23 2.23 0 0 0 .841-.704c.232-.314.407-.699.526-1.155s.178-.989.178-1.586zm4.976 4.662h-1.264v-8.176c0-.533.095-.982.287-1.346a1.92 1.92 0 0 1 .841-.834c.364-.192.797-.288 1.298-.288a3.58 3.58 0 0 1 .438.028c.15.018.296.045.437.082l-.068 1.032a2.06 2.06 0 0 0-.328-.048l-.356-.013c-.268 0-.501.054-.697.164-.191.104-.337.259-.437.464s-.151.458-.151.759V325zm1.641-7.396v.97h-4.074v-.97h4.074zm2.358 7.396h-1.264v-8.039c0-.561.107-1.035.321-1.422.219-.387.531-.681.936-.882s.887-.301 1.443-.301c.333 0 .656.041.971.123a10.36 10.36 0 0 1 .97.294l-.219 1.067c-.205-.082-.446-.16-.724-.233a3.37 3.37 0 0 0-.902-.116c-.543 0-.935.123-1.176.369s-.356.609-.356 1.101V325zm1.511-7.396v.97h-3.944v-.97h3.944zm2.488 0V325h-1.264v-7.396h1.264zm5.025 6.494a1.9 1.9 0 0 0 .834-.185 1.72 1.72 0 0 0 .629-.506 1.41 1.41 0 0 0 .28-.745h1.203c-.023.438-.171.845-.444 1.224-.269.373-.622.676-1.06.909a3.07 3.07 0 0 1-1.442.342c-.556 0-1.042-.098-1.456-.294s-.752-.465-1.026-.807a3.61 3.61 0 0 1-.608-1.176c-.132-.446-.198-.918-.198-1.415v-.287c0-.497.066-.966.198-1.408s.339-.841.608-1.183a2.9 2.9 0 0 1 1.026-.806c.414-.196.9-.294 1.456-.294.578 0 1.084.118 1.517.355s.773.552 1.019.957.387.857.41 1.367h-1.203c-.023-.305-.109-.581-.26-.827s-.346-.442-.601-.588-.545-.225-.882-.225c-.388 0-.713.077-.978.232-.26.151-.467.356-.622.616s-.26.54-.328.854a4.69 4.69 0 0 0-.096.95v.287a4.78 4.78 0 0 0 .096.957c.064.315.171.6.321.855s.363.46.622.615c.265.15.593.226.985.226zm7.437 1.039c-.515 0-.982-.087-1.401-.26a3.17 3.17 0 0 1-1.073-.745c-.297-.319-.524-.697-.684-1.135a4.17 4.17 0 0 1-.239-1.435v-.288c0-.601.089-1.137.266-1.606s.42-.875.725-1.203.652-.577 1.039-.745.788-.253 1.203-.253c.529 0 .985.091 1.367.273.388.183.704.438.951.766a3.26 3.26 0 0 1 .546 1.148c.119.438.178.916.178 1.436v.567h-5.523v-1.032h4.258v-.096c-.018-.328-.086-.647-.205-.957a1.72 1.72 0 0 0-.546-.765c-.251-.201-.593-.301-1.026-.301-.287 0-.551.061-.793.184s-.449.297-.622.534a2.67 2.67 0 0 0-.403.868c-.096.342-.144.736-.144 1.182v.288c0 .35.048.681.144.991s.244.574.43.806c.192.233.422.415.691.547a2.11 2.11 0 0 0 .93.198c.446 0 .824-.091 1.134-.273s.581-.426.814-.731l.765.608c-.159.242-.362.472-.608.69s-.549.397-.909.534-.777.205-1.265.205z" class="E"/><circle cx="193" cy="319.654" r="4" fill="#3fc3fe"/><defs><filter id="B" x="0" y="0" width="523" height="375" filterUnits="userSpaceOnUse" class="G"><feFlood result="A" class="H"/><feColorMatrix in="SourceAlpha" values="0 0 0 0 0 0 0 0 0 0 0 0 0 0 0 0 0 0 127 0"/><feOffset/><feGaussianBlur stdDeviation="25"/><feColorMatrix values="0 0 0 0 0.00392157 0 0 0 0 0.341176 0 0 0 0 0.607843 0 0 0 0.1 0"/><feBlend in2="A"/><feBlend in="SourceGraphic"/></filter><filter id="C" x="345" y="199" width="191" height="189" filterUnits="userSpaceOnUse" class="G"><feFlood result="A" class="H"/><feColorMatrix in="SourceAlpha" values="0 0 0 0 0 0 0 0 0 0 0 0 0 0 0 0 0 0 127 0"/><feOffset/><feGaussianBlur stdDeviation="25"/><feColorMatrix values="0 0 0 0 0.00392157 0 0 0 0 0.341176 0 0 0 0 0.607843 0 0 0 0.1 0"/><feBlend in2="A"/><feBlend in="SourceGraphic"/></filter><filter id="D" x="126" y="199" width="299" height="189" filterUnits="userSpaceOnUse" class="G"><feFlood result="A" class="H"/><feColorMatrix in="SourceAlpha" values="0 0 0 0 0 0 0 0 0 0 0 0 0 0 0 0 0 0 127 0"/><feOffset/><feGaussianBlur stdDeviation="25"/><feColorMatrix values="0 0 0 0 0.00392157 0 0 0 0 0.341176 0 0 0 0 0.607843 0 0 0 0.1 0"/><feBlend in2="A"/><feBlend in="SourceGraphic"/></filter></defs></svg>