<svg width="984" height="32" viewBox="0 0 984 32" fill="none" xmlns="http://www.w3.org/2000/svg">
<g clip-path="url(#clip0_13961_93783)">
<path d="M26.5991 5.89176H2.64934V1.63877H26.5991V5.89176ZM28.3116 0H0.9375V7.52988H28.3109L28.3116 0ZM2.6487 19.9748H0.9375V12.4449H2.6487V15.4203H5.7057V12.4449H7.41689V19.9748H5.70505V16.8547H2.64806L2.6487 19.9748ZM10.008 16.6744H12.0462C12.0079 16.1206 11.7692 15.7348 11.1023 15.7348C10.5994 15.7348 10.1584 15.9396 10.008 16.6744ZM11.3032 20.0961C9.56776 20.0961 8.38512 19.048 8.38512 17.3256C8.38512 15.6505 9.54278 14.4942 11.0773 14.4942C12.7502 14.4942 13.5809 15.5661 13.5809 17.1685V17.7718H10.008C10.2096 18.6024 10.8886 18.8185 11.5682 18.8185C12.1595 18.8185 12.5864 18.6984 13.1148 18.3852H13.1783V19.6258C12.7252 19.9397 12.0833 20.0961 11.3032 20.0961ZM18.0464 16.8185L17.1651 19.9748H15.6689L13.9584 14.6733V14.613H15.594L16.5246 17.7823L17.4051 14.613H18.7386L19.632 17.7823L20.5754 14.613H22.1484V14.6733L20.4365 19.9754H18.9389L18.0464 16.8185ZM24.9269 20.0961C23.5683 20.0961 23.0148 19.5785 23.0148 18.3618V12.4461H24.6755V18.2529C24.6755 18.6265 24.8265 18.7588 25.1534 18.7588C25.2667 18.7588 25.4306 18.7231 25.5312 18.6868H25.5566V20C25.4178 20.048 25.1791 20.0961 24.9269 20.0961ZM27.6448 16.6744H29.683C29.6446 16.1206 29.4059 15.7348 28.7391 15.7348C28.2361 15.7348 27.7952 15.9396 27.6448 16.6744ZM28.94 20.0961C27.2045 20.0961 26.0219 19.048 26.0219 17.3256C26.0219 15.6505 27.1795 14.4942 28.7141 14.4942C30.3869 14.4942 31.2176 15.5661 31.2176 17.1685V17.7718H27.6448C27.8458 18.6024 28.5253 18.8185 29.2043 18.8185C29.7964 18.8185 30.2231 18.6984 30.7524 18.3852H30.815V19.6258C30.3619 19.9397 29.7207 20.0961 28.94 20.0961ZM38.0355 14.6135H39.2687V15.8905H38.0348V18.0708C38.0348 18.5409 38.2236 18.7582 38.7273 18.7582C38.8656 18.7582 39.0414 18.7459 39.2302 18.6856H39.268V19.9385C39.0542 20.0111 38.7273 20.0948 38.2492 20.0948C36.9028 20.0948 36.3742 19.5046 36.3742 18.1434V15.8905H34.2483V18.0708C34.2483 18.5409 34.4371 18.7582 34.9394 18.7582C35.0789 18.7582 35.2549 18.7459 35.4437 18.6856H35.4815V19.9385C35.2677 20.0111 34.9401 20.0948 34.4626 20.0948C33.1162 20.0948 32.5877 19.5046 32.5877 18.1434V15.8905H31.7321V14.6135H32.5877V13.144H34.2483V14.6135H36.3742V13.144H38.0348L38.0355 14.6135ZM44.863 16.1434C45.732 16.1434 46.1467 15.6739 46.1467 14.9988C46.1467 14.2997 45.732 13.8301 44.8636 13.8301H43.7815V16.144L44.863 16.1434ZM47.8835 14.9988C47.8835 16.6381 46.7381 17.5292 45.0019 17.5292H43.7815V19.9748H42.0716V12.4449H45.0019C46.7381 12.4449 47.8835 13.3366 47.8835 14.9988ZM51.5312 18.2892V17.8313C51.279 17.6991 50.9526 17.651 50.6128 17.651C50.072 17.651 49.745 17.843 49.745 18.2769C49.745 18.7231 50.0715 18.9157 50.5623 18.9157C51.0275 18.9157 51.3809 18.6875 51.5312 18.2892ZM51.5811 19.4461C51.2162 19.8678 50.6761 20.072 50.0964 20.072C49.0021 20.072 48.1088 19.4344 48.1088 18.301C48.1088 17.253 49.0027 16.5545 50.2845 16.5545C50.6877 16.5545 51.1037 16.6141 51.5306 16.7348V16.6388C51.5306 16.0604 51.1914 15.808 50.2987 15.808C49.7317 15.808 49.1916 15.9637 48.7257 16.2172H48.6629V14.9397C49.0905 14.6997 49.8455 14.4942 50.5873 14.4942C52.2734 14.4942 53.1919 15.2647 53.1919 16.6141V19.9754H51.5811V19.4461ZM54.034 17.3015C54.034 15.5785 55.305 14.4942 56.9655 14.4942C57.5569 14.4942 58.1097 14.6148 58.5257 14.9034V16.2652H58.4616C58.095 15.9913 57.6437 15.8428 57.1793 15.8431C56.3492 15.8431 55.7202 16.3858 55.7202 17.3015C55.7202 18.2166 56.3492 18.7472 57.1793 18.7472C57.6437 18.7476 58.095 18.599 58.4616 18.3249H58.5257V19.6861C58.1097 19.9754 57.5569 20.0961 56.9655 20.0961C55.305 20.0961 54.034 19.0246 54.034 17.3015ZM61.2295 17.5415V19.9748H59.5695V12.4449H61.2295V16.7342L62.9028 14.613H64.7901V14.6733L62.7774 17.1071L64.7901 19.9144V19.9748H62.8901L61.2295 17.5415ZM68.5139 18.2892V17.8313C68.2624 17.6991 67.9347 17.651 67.5956 17.651C67.0549 17.651 66.7278 17.843 66.7278 18.2769C66.7278 18.7231 67.0542 18.9157 67.5444 18.9157C68.011 18.9157 68.3629 18.6875 68.5139 18.2892ZM68.5637 19.4461C68.1992 19.8678 67.6577 20.072 67.0791 20.072C65.9849 20.072 65.092 19.4344 65.092 18.301C65.092 17.253 65.9849 16.5545 67.2692 16.5545C67.6909 16.5573 68.11 16.6181 68.5139 16.7348V16.6388C68.5139 16.0604 68.1748 15.808 67.2807 15.808C66.7151 15.808 66.1736 15.9637 65.7084 16.2172H65.6451V14.9397C66.0738 14.6997 66.8283 14.4942 67.57 14.4942C69.2568 14.4942 70.1745 15.2647 70.1745 16.6141V19.9754H68.5637V19.4461ZM72.9673 15.4806C73.2686 14.8899 73.7096 14.5533 74.3264 14.5533C74.5523 14.5533 74.7789 14.6012 74.866 14.6499V16.1674H74.8038C74.6152 16.0948 74.3885 16.0468 74.0743 16.0468C73.5585 16.0468 73.156 16.336 73.0171 16.8899V19.9748H71.3571V14.613H72.9673V15.4806ZM79.2694 18.1563V16.4334C78.9928 16.0479 78.6287 15.8794 78.2128 15.8794C77.4833 15.8794 76.993 16.3858 76.993 17.3009C76.993 18.2166 77.484 18.7102 78.2128 18.7102C78.6287 18.7102 78.9935 18.5415 79.2694 18.1563ZM79.3193 19.4216C78.9673 19.8554 78.4137 20.0961 77.6593 20.0961C76.2252 20.0961 75.3069 18.8437 75.3069 17.3015C75.3069 15.7587 76.2252 14.4942 77.6593 14.4942C78.3888 14.4942 78.9174 14.7115 79.2694 15.1083V12.4461H80.9299V19.9754H79.3193V19.4216ZM0.9375 22.4344H5.79337V23.3501H2.0318V25.6505H5.44076V26.5429H2.0318V29.0486H5.79337V29.9636H0.9375V22.4344ZM9.80643 24.5545C11.0511 24.5545 11.7435 25.3379 11.7435 26.6264V29.9636H10.6991V26.6504C10.6991 25.9637 10.3344 25.4701 9.54213 25.4701C9.23311 25.4673 8.93119 25.5592 8.68011 25.7324C8.42905 25.9058 8.24189 26.1513 8.14578 26.4338V29.9636H7.1014V24.6633H8.14578V25.4338C8.47216 24.9404 9.02633 24.5545 9.80643 24.5545ZM14.5491 24.6628H15.9703V25.5182H14.5491V28.3736C14.5491 28.9755 14.8754 29.1809 15.4673 29.1809C15.6305 29.1809 15.8065 29.1563 15.9327 29.1083H15.9709V29.9636C15.82 30.024 15.6056 30.072 15.3163 30.072C14.0204 30.072 13.5053 29.5059 13.5053 28.4702V25.5182H12.5493V24.6628H13.5053V23.2536H14.5484L14.5491 24.6628ZM17.7193 26.7944H20.4742C20.4365 26.0117 20.034 25.4098 19.1784 25.4098C18.3862 25.4098 17.8696 25.9759 17.7193 26.7944ZM19.3671 30.072C17.7442 30.072 16.6372 29.0357 16.6372 27.3735C16.6372 25.7107 17.6687 24.5545 19.1663 24.5545C20.6886 24.5545 21.4809 25.6024 21.4809 27.1563V27.6142H17.6816C17.7947 28.6868 18.5122 29.2042 19.5054 29.2042C20.1223 29.2042 20.5619 29.0721 21.0527 28.7224H21.0911V29.6025C20.6381 29.9397 20.0462 30.072 19.3671 30.072ZM23.7578 25.4825C23.9964 24.9164 24.5257 24.579 25.1285 24.579C25.3678 24.579 25.5816 24.6148 25.6692 24.6633V25.6505H25.6321C25.4805 25.5791 25.2289 25.5427 24.9774 25.5427C24.4117 25.5427 23.9338 25.9034 23.7571 26.5064V29.9636H22.7133V24.6633H23.7571L23.7578 25.4825ZM29.0404 29.1686C30.072 29.1686 30.6762 28.3852 30.6762 27.3126C30.6762 26.2529 30.072 25.4585 29.0404 25.4585C28.4742 25.4585 27.9462 25.7834 27.6697 26.3009V28.3379C27.9462 28.8547 28.4742 29.1686 29.0404 29.1686ZM29.2171 24.5545C30.8643 24.5545 31.7448 25.8437 31.7448 27.3126C31.7448 28.7834 30.8643 30.072 29.2171 30.072C28.5374 30.072 27.9583 29.7348 27.6697 29.3729V32H26.6247V24.6628H27.669V25.2652C27.9576 24.8917 28.5375 24.5545 29.2171 24.5545ZM34.0224 25.4825C34.2612 24.9164 34.7903 24.579 35.3938 24.579C35.6326 24.579 35.8462 24.6148 35.9339 24.6633V25.6505H35.8968C35.7458 25.5791 35.4942 25.5427 35.2427 25.5427C34.6765 25.5427 34.199 25.9034 34.0224 26.5064V29.9636H32.9793V24.6633H34.0224V25.4825ZM37.4443 22.5187C37.8089 22.5187 38.1103 22.7957 38.1103 23.1453C38.1083 23.3132 38.037 23.4735 37.912 23.591C37.7871 23.7085 37.6188 23.7735 37.4443 23.7717C37.0922 23.7717 36.7767 23.4949 36.7767 23.1453C36.7767 22.7957 37.0922 22.5187 37.4443 22.5187ZM36.9277 29.9643H37.9727V24.6633H36.9277V29.9643ZM41.6965 26.8677C42.4888 27.1078 43.3694 27.4215 43.3694 28.4333C43.3694 29.5176 42.4382 30.072 41.2434 30.072C40.514 30.072 39.7844 29.9034 39.3685 29.5902V28.6381H39.4196C39.8848 29.0481 40.5767 29.229 41.2306 29.229C41.822 29.229 42.3505 29.0111 42.3505 28.5539C42.3505 28.0843 41.9109 27.9754 41.042 27.6985C40.2619 27.4578 39.3947 27.1804 39.3947 26.1809C39.3947 25.1563 40.2745 24.5545 41.3944 24.5545C42.0486 24.5545 42.627 24.6868 43.0923 24.9877V25.9519H43.0551C42.5953 25.587 42.0157 25.3905 41.4195 25.3975C40.7655 25.3975 40.4007 25.6745 40.4007 26.048C40.4007 26.4701 40.8025 26.5895 41.6965 26.8677ZM45.357 26.7944H48.1113C48.0742 26.0117 47.6716 25.4098 46.8161 25.4098C46.0233 25.4098 45.5074 25.9759 45.357 26.7944ZM47.0043 30.072C45.382 30.072 44.275 29.0357 44.275 27.3735C44.275 25.7107 45.3065 24.5545 46.8033 24.5545C48.3264 24.5545 49.118 25.6024 49.118 27.1563V27.6142H45.3192C45.4326 28.6868 46.1492 29.2042 47.1431 29.2042C47.76 29.2042 48.1997 29.0721 48.6898 28.7224H48.7282V29.6025C48.2757 29.9397 47.6838 30.072 47.0043 30.072Z" fill="#C6D2D9"/>
<g clip-path="url(#clip1_13961_93783)">
<path d="M175.475 8L171.54 16.4164L170.061 13.2274H168.461L170.894 18.4438H172.187L177.064 8H175.475Z" fill="#C6D2D9"/>
<path d="M158.591 23.6274H161.758V17.8302C161.758 16.5041 162.526 15.5726 163.665 15.5726C164.761 15.5726 165.331 16.3398 165.331 17.4466V23.6274H168.498V16.8439C168.498 14.5425 167.117 12.9206 164.882 12.9206C163.457 12.9206 162.46 13.5343 161.715 14.6521H161.649V13.2274H158.58L158.591 23.6274ZM152.367 12.9425C149.057 12.9425 146.843 15.3206 146.843 18.4548C146.843 21.5672 149.057 23.9672 152.367 23.9672C155.676 23.9672 157.89 21.5672 157.89 18.4548C157.901 15.3206 155.676 12.9425 152.367 12.9425ZM152.345 21.6219C150.843 21.6219 150.043 20.3617 150.043 18.4548C150.043 16.5261 150.832 15.2877 152.345 15.2877C153.846 15.2877 154.679 16.5261 154.679 18.4548C154.69 20.3617 153.857 21.6219 152.345 21.6219ZM137.813 23.6274H146.712V21.1288H141.671V21.063L146.493 15.6603V13.2165H137.813V15.7261H142.69V15.7918L137.813 21.2384V23.6274ZM133.747 23.6274H136.937V13.2274H133.747V23.6274ZM126.35 23.6274H129.528V18.8493C129.528 16.6795 130.832 15.7151 132.816 15.9891H132.882V13.2493C132.717 13.1836 132.531 13.1726 132.235 13.1726C130.997 13.1726 130.164 13.7425 129.452 14.9589H129.386V13.2274H126.35V23.6274ZM120.52 21.6329C119.117 21.6329 118.263 20.7233 118.098 19.3206H125.594C125.616 17.085 125.024 15.2987 123.786 14.1808C122.909 13.3699 121.758 12.9206 120.29 12.9206C117.156 12.9206 114.986 15.2987 114.986 18.411C114.986 21.5452 117.057 23.9343 120.498 23.9343C121.802 23.9343 122.832 23.5836 123.687 23.0028C124.597 22.3781 125.254 21.4576 125.43 20.548H122.383C122.087 21.2274 121.452 21.6329 120.52 21.6329ZM120.356 15.1891C121.474 15.1891 122.241 16.0219 122.372 17.2384H118.12C118.372 16.011 119.041 15.1891 120.356 15.1891ZM108.652 23.6274H111.983L115.6 13.2274H112.41L110.383 19.9124H110.339L108.312 13.2274H105.035L108.652 23.6274ZM133.747 9.52332H136.937V12.3507H133.747V9.52332Z" fill="#C6D2D9"/>
</g>
<path d="M201.098 4H241.527V16.9559L239.526 18.8121L241.527 20.464V28H201.098V14.7368L202.361 13.4737L201.098 12.2105V4Z" fill="#C6D2D9"/>
<path d="M208.914 23.3246V16.9785H215.635L216.356 17.9183L217.101 16.9785H241.495V22.8869C241.495 22.8869 240.857 23.3182 240.119 23.3246H226.612L225.799 22.3242V23.3246H223.135V21.6169C223.135 21.6169 222.771 21.8553 221.984 21.8553H221.077V23.3246H217.044L216.324 22.3646L215.593 23.3246H208.914Z" fill="white"/>
<path d="M201.062 12.1957L202.578 8.66321H205.199L206.059 10.642V8.66321H209.317L209.829 10.0934L210.326 8.66321H224.951V9.38222C224.951 9.38222 225.72 8.66321 226.984 8.66321L231.729 8.67979L232.574 10.6327V8.66321H235.301L236.051 9.78498V8.66321H238.803V15.0093H236.051L235.332 13.8839V15.0093H231.326L230.923 14.0089H229.846L229.45 15.0093H226.733C225.646 15.0093 224.951 14.3049 224.951 14.3049V15.0093H220.855L220.042 14.0089V15.0093H204.811L204.408 14.0089H203.335L202.935 15.0093H201.062V12.1957Z" fill="white"/>
<path d="M203.114 9.44543L201.07 14.1972H202.401L202.778 13.2457H204.971L205.346 14.1972H206.706L204.664 9.44543H203.114ZM203.871 10.5513L204.539 12.214H203.2L203.871 10.5513Z" fill="#C6D2D9"/>
<path d="M206.852 14.1961V9.44434L208.743 9.45136L209.843 12.515L210.916 9.44434H212.792V14.1961H211.604V10.6948L210.345 14.1961H209.303L208.04 10.6948V14.1961H206.852Z" fill="#C6D2D9"/>
<path d="M213.605 14.1962V9.44446H217.483V10.5074H214.806V11.3201H217.42V12.3205H214.806V13.1646H217.483V14.1962H213.605Z" fill="#C6D2D9"/>
<path d="M218.156 9.44543V14.1972H219.344V12.5091H219.845L221.269 14.1972H222.721L221.158 12.4465C221.8 12.3924 222.461 11.8418 222.461 10.987C222.461 9.98709 221.676 9.44543 220.8 9.44543H218.156ZM219.344 10.5083H220.703C221.028 10.5083 221.265 10.7631 221.265 11.0085C221.265 11.3242 220.958 11.5087 220.72 11.5087H219.344V10.5083Z" fill="#C6D2D9"/>
<path d="M224.17 14.196H222.957V9.44421H224.17V14.196Z" fill="#C6D2D9"/>
<path d="M227.048 14.1961H226.786C225.519 14.1961 224.75 13.1981 224.75 11.8397C224.75 10.4479 225.511 9.44434 227.111 9.44434H228.424V10.5697H227.063C226.413 10.5697 225.954 11.0765 225.954 11.8515C225.954 12.7717 226.479 13.1582 227.236 13.1582H227.548L227.048 14.1961Z" fill="#C6D2D9"/>
<path d="M229.63 9.44531L227.586 14.1971H228.917L229.294 13.2455H231.487L231.862 14.1971H233.222L231.18 9.44531H229.63ZM230.386 10.5512L231.055 12.2139H229.716L230.386 10.5512Z" fill="#C6D2D9"/>
<path d="M233.367 14.1961V9.44434H234.878L236.807 12.4298V9.44434H237.995V14.1961H236.533L234.555 11.1325V14.1961H233.367Z" fill="#C6D2D9"/>
<path d="M209.715 22.5119V17.7601H213.592V18.823H210.916V19.6358H213.53V20.6362H210.916V21.4802H213.592V22.5119H209.715Z" fill="#C6D2D9"/>
<path d="M228.719 22.5119V17.7601H232.596V18.823H229.919V19.6358H232.521V20.6362H229.919V21.4802H232.596V22.5119H228.719Z" fill="#C6D2D9"/>
<path d="M213.752 22.5119L215.64 20.1653L213.707 17.7601H215.204L216.355 19.247L217.51 17.7601H218.948L217.041 20.136L218.932 22.5119H217.436L216.318 21.0484L215.227 22.5119H213.752Z" fill="#C6D2D9"/>
<path d="M219.066 17.7609V22.5126H220.286V21.0121H221.537C222.595 21.0121 223.397 20.4507 223.397 19.3591C223.397 18.4548 222.768 17.7609 221.691 17.7609H219.066ZM220.286 18.8355H221.603C221.945 18.8355 222.189 19.045 222.189 19.3826C222.189 19.6997 221.946 19.9296 221.599 19.9296H220.286V18.8355Z" fill="#C6D2D9"/>
<path d="M223.918 17.76V22.5117H225.106V20.8236H225.606L227.031 22.5117H228.483L226.92 20.7611C227.561 20.707 228.223 20.1564 228.223 19.3016C228.223 18.3017 227.438 17.76 226.562 17.76H223.918ZM225.106 18.8229H226.464C226.79 18.8229 227.027 19.0777 227.027 19.3231C227.027 19.6388 226.72 19.8233 226.482 19.8233H225.106V18.8229Z" fill="#C6D2D9"/>
<path d="M233.151 22.5119V21.4802H235.529C235.881 21.4802 236.033 21.2901 236.033 21.0817C236.033 20.8819 235.881 20.68 235.529 20.68H234.454C233.52 20.68 233 20.111 233 19.2568C233 18.4949 233.476 17.7601 234.864 17.7601H237.178L236.678 18.8293H234.677C234.294 18.8293 234.176 19.03 234.176 19.2216C234.176 19.4186 234.322 19.6358 234.614 19.6358H235.74C236.781 19.6358 237.233 20.2263 237.233 20.9996C237.233 21.831 236.729 22.5119 235.683 22.5119H233.151Z" fill="#C6D2D9"/>
<path d="M237.502 22.5119V21.4802H239.88C240.232 21.4802 240.385 21.2901 240.385 21.0817C240.385 20.8819 240.233 20.68 239.88 20.68H238.806C237.872 20.68 237.352 20.111 237.352 19.2568C237.352 18.4949 237.828 17.7601 239.216 17.7601H241.53L241.029 18.8293H239.028C238.646 18.8293 238.528 19.03 238.528 19.2216C238.528 19.4186 238.674 19.6358 238.966 19.6358H240.091C241.133 19.6358 241.584 20.2263 241.584 20.9996C241.584 21.831 241.081 22.5119 240.035 22.5119H237.502Z" fill="#C6D2D9"/>
<path fill-rule="evenodd" clip-rule="evenodd" d="M273.736 10.4125V12.631C272.681 12.2619 271.526 12.0465 270.605 12.0465C269.468 12.0465 268.835 12.3929 268.835 13.0154C268.835 13.4125 269.112 13.6758 269.906 14.0328L272.043 14.9915C273.752 15.7594 274.613 16.8797 274.613 18.3353C274.613 20.5819 272.669 21.9991 269.586 21.9991C268.462 21.9991 267.162 21.8383 265.784 21.5269V19.2338C267.15 19.6054 268.401 19.8038 269.374 19.8038C270.648 19.8038 271.331 19.4488 271.331 18.7871C271.331 18.3895 271.064 18.0973 270.454 17.8247L268.115 16.7833C266.382 16.0102 265.582 14.9689 265.582 13.4842C265.582 11.3567 267.456 10 270.396 10C271.426 10 272.693 10.1566 273.736 10.4125ZM276.277 10.2325H279.732V21.7666H276.277V10.2325ZM290.966 10.2325V12.3456H285.75V14.9471H290.307V16.8584H285.75V19.5555H291.034V21.7666H282.393V10.2325H290.966ZM307.29 10.2325V21.7666H303.947V14.1749L300.672 21.8567H298.559L295.306 14.1749V21.7666H292.998V10.2325H297.217L300.2 17.2483L303.167 10.2325H307.29ZM318.533 10.2325V12.3456H313.309V14.9471H317.864V16.8584H313.309V19.5555H318.592V21.7666H309.943V10.2325H318.533ZM330.703 10.2325V21.7666H327.016L322.864 14.369V21.7666H320.555V10.2325H324.34L328.402 17.5324V10.2325H330.703ZM340.731 10.4125V12.631C339.683 12.2645 338.521 12.0465 337.617 12.0465C336.462 12.0465 335.829 12.3874 335.829 13.0119C335.829 13.4189 336.088 13.6621 336.909 14.0333L339.036 14.9919C340.758 15.7679 341.608 16.8784 341.608 18.3511C341.608 20.5858 339.662 22 336.587 22C335.461 22 334.155 21.8383 332.78 21.5277V19.2346C334.143 19.6054 335.392 19.8046 336.358 19.8046C337.624 19.8046 338.326 19.4497 338.326 18.8089C338.326 18.3848 338.08 18.1113 337.44 17.8255L335.111 16.7841C333.367 16.0051 332.576 14.9757 332.576 13.4855C332.576 11.3592 334.451 10.0017 337.385 10.0017C338.417 10.0004 339.69 10.1566 340.731 10.4125Z" fill="#C6D2D9"/>
<path fill-rule="evenodd" clip-rule="evenodd" d="M383.057 25.9615L383.049 27.7766L383.182 27.7993C383.596 27.8773 384.012 27.9313 384.433 27.9616C384.8 27.9959 385.171 28.003 385.539 27.9831C385.891 27.9578 386.239 27.8912 386.577 27.7859C386.972 27.6733 387.339 27.4763 387.653 27.2083C387.936 26.9655 388.152 26.6539 388.28 26.3032C388.504 25.7162 388.5 25.0653 388.269 24.4813C388.146 24.1784 387.953 23.9093 387.706 23.6968C387.467 23.4803 387.186 23.3158 386.881 23.2137L385.521 22.7055C385.359 22.636 385.226 22.5094 385.15 22.3495C385.121 22.2838 385.106 22.212 385.108 22.14C385.111 22.0679 385.131 21.9974 385.165 21.934C385.189 21.8891 385.22 21.8478 385.255 21.8114C385.313 21.7516 385.382 21.7022 385.457 21.6653C385.608 21.5894 385.772 21.5418 385.941 21.5232C386.228 21.4814 386.522 21.4846 386.808 21.5326C387.147 21.5695 387.484 21.6299 387.813 21.7136L387.884 21.7293V20.0549L387.755 20.0267C387.418 19.9455 387.076 19.8843 386.732 19.8435C386.285 19.7834 385.834 19.7814 385.386 19.8375C384.821 19.8898 384.282 20.1076 383.839 20.4645C383.537 20.7024 383.308 21.0202 383.177 21.3822C382.979 21.9335 382.979 22.5368 383.177 23.0885C383.277 23.3625 383.44 23.6097 383.652 23.8107C383.834 23.9885 384.041 24.1393 384.267 24.2594C384.563 24.4195 384.877 24.5438 385.202 24.6292C385.31 24.6618 385.417 24.6959 385.522 24.7316L385.683 24.7911L385.729 24.81C385.889 24.8673 386.034 24.9576 386.156 25.0746C386.241 25.1547 386.306 25.2528 386.346 25.3624C386.372 25.4622 386.372 25.5667 386.348 25.667C386.296 25.8285 386.185 25.9634 386.036 26.0429C385.874 26.1277 385.699 26.1828 385.517 26.2058C385.252 26.2484 384.983 26.2621 384.714 26.2468C384.362 26.2202 384.012 26.1732 383.664 26.106C383.484 26.0681 383.303 26.026 383.125 25.9784L383.057 25.9615ZM375.665 27.7109V25.6034L375.624 25.6215C375.151 25.8515 374.639 25.9826 374.115 26.0071C373.571 26.05 373.03 25.8895 372.596 25.5562C372.286 25.3153 372.056 24.9858 371.934 24.6107C371.801 24.2021 371.786 23.7638 371.891 23.3468C371.987 22.9203 372.225 22.5392 372.564 22.2656C372.865 22.0124 373.232 21.8527 373.621 21.8064C374.311 21.7296 375.006 21.8608 375.619 22.1835L375.665 22.2071V20.0879L375.57 20.0621C374.954 19.8632 374.309 19.7782 373.665 19.811C373.077 19.8262 372.498 19.9594 371.963 20.2028C371.423 20.4521 370.946 20.8228 370.57 21.2865C369.997 22.0144 369.682 22.9116 369.667 23.8394C369.654 24.767 369.944 25.6735 370.493 26.4182C371.05 27.1345 371.83 27.6398 372.708 27.8521C373.633 28.0788 374.603 28.0442 375.511 27.7534L375.665 27.7109ZM378.394 27.85H380.374V19.9453H378.394V27.85ZM365.609 13.5931C365.624 13.7783 365.689 13.9561 365.799 14.1056C365.909 14.2551 366.058 14.3704 366.23 14.4383C366.401 14.5062 366.589 14.5241 366.771 14.4898C366.953 14.4554 367.12 14.3702 367.256 14.244C367.438 14.0741 367.549 13.8416 367.568 13.5931V11.4021C367.562 11.1442 367.457 10.8987 367.274 10.7182C367.091 10.5377 366.844 10.4366 366.589 10.4366C366.332 10.4366 366.086 10.5377 365.903 10.7182C365.72 10.8987 365.614 11.1442 365.609 11.4021V13.5931ZM371.028 13.5931C371.048 13.8417 371.158 14.0739 371.341 14.2436C371.522 14.4132 371.762 14.5075 372.009 14.5078C372.256 14.5077 372.495 14.4134 372.676 14.2438C372.857 14.074 372.97 13.8417 372.987 13.5931V8.68157C372.979 8.4263 372.872 8.18449 372.688 8.0071C372.506 7.82971 372.262 7.73054 372.008 7.73054C371.754 7.73054 371.51 7.82971 371.328 8.0071C371.145 8.18449 371.038 8.4263 371.028 8.68157V13.5935V13.5931ZM376.42 15.5712C376.438 15.8203 376.549 16.0535 376.731 16.2237C376.911 16.394 377.151 16.4885 377.4 16.4885C377.648 16.4885 377.887 16.394 378.069 16.2237C378.251 16.0535 378.361 15.8203 378.379 15.5712V4.94734C378.366 4.69461 378.257 4.45645 378.075 4.28211C377.892 4.10774 377.652 4.01052 377.4 4.01052C377.148 4.01052 376.906 4.10774 376.725 4.28211C376.542 4.45645 376.433 4.69461 376.42 4.94734V15.5712ZM381.84 13.5931C381.857 13.8424 381.968 14.0755 382.15 14.2459C382.331 14.4162 382.571 14.5108 382.819 14.5108C383.067 14.5108 383.306 14.4162 383.488 14.2459C383.67 14.0755 383.781 13.8424 383.799 13.5931V8.68157C383.788 8.42693 383.681 8.18619 383.498 8.00959C383.316 7.83291 383.073 7.73428 382.819 7.73402C382.566 7.73393 382.322 7.83265 382.14 8.00942C381.957 8.18619 381.849 8.42711 381.84 8.68201V13.5931ZM387.235 13.5931C387.249 13.7784 387.314 13.9562 387.424 14.1057C387.535 14.2554 387.683 14.3708 387.856 14.4388C388.027 14.5068 388.214 14.5245 388.397 14.49C388.578 14.4556 388.746 14.3703 388.882 14.244C389.064 14.0741 389.176 13.8416 389.194 13.5931V11.4021C389.186 11.2123 389.123 11.0288 389.014 10.8735C388.906 10.7183 388.755 10.5981 388.58 10.527C388.404 10.4561 388.213 10.4376 388.027 10.4736C387.843 10.5096 387.671 10.5987 387.535 10.7301C387.352 10.9067 387.245 11.1472 387.235 11.4021V13.5931ZM392.651 13.5931C392.67 13.8408 392.781 14.0721 392.962 14.2406C393.144 14.4093 393.382 14.5029 393.629 14.5029C393.876 14.5029 394.114 14.4093 394.295 14.2406C394.477 14.0721 394.589 13.8408 394.609 13.5931V8.68157C394.597 8.428 394.489 8.18877 394.306 8.01351C394.123 7.83826 393.881 7.74043 393.629 7.74043C393.378 7.74043 393.135 7.83826 392.953 8.01351C392.77 8.18877 392.662 8.428 392.651 8.68157V13.5935V13.5931ZM398.044 15.5712C398.061 15.8203 398.172 16.0535 398.354 16.2237C398.535 16.394 398.774 16.4885 399.022 16.4885C399.27 16.4885 399.509 16.394 399.691 16.2237C399.873 16.0535 399.983 15.8203 400.001 15.5712V4.94734C399.993 4.75742 399.932 4.5737 399.823 4.41833C399.714 4.26294 399.564 4.1425 399.387 4.07147C399.213 4.00044 399.021 3.98186 398.836 4.01794C398.65 4.05404 398.48 4.14326 398.343 4.27491C398.159 4.45163 398.053 4.69263 398.044 4.94734V15.5712ZM403.454 13.5931C403.472 13.8418 403.584 14.0743 403.765 14.2439C403.947 14.4136 404.185 14.5079 404.433 14.5079C404.681 14.5079 404.919 14.4136 405.101 14.2439C405.283 14.0743 405.394 13.8418 405.412 13.5931V8.68157C405.401 8.42693 405.295 8.1861 405.112 8.00942C404.93 7.83283 404.686 7.73411 404.433 7.73402C404.179 7.73411 403.937 7.83291 403.753 8.00968C403.571 8.18636 403.463 8.42729 403.454 8.68201V13.5931ZM408.851 13.5931C408.869 13.8424 408.98 14.0755 409.162 14.2459C409.344 14.4162 409.583 14.5108 409.831 14.5108C410.079 14.5108 410.319 14.4162 410.5 14.2459C410.682 14.0755 410.793 13.8424 410.81 13.5931V11.4021C410.801 11.1474 410.693 10.9066 410.51 10.73C410.327 10.5533 410.084 10.4546 409.831 10.4545C409.578 10.4544 409.334 10.5532 409.152 10.7299C408.968 10.9067 408.862 11.1476 408.851 11.4026V13.5931ZM396.351 27.7109V25.6034L396.311 25.6215C395.838 25.8516 395.325 25.9827 394.8 26.0071C394.257 26.0499 393.716 25.8894 393.282 25.5562C392.973 25.3153 392.742 24.9858 392.621 24.6107C392.487 24.2021 392.473 23.7639 392.577 23.3468C392.673 22.9202 392.912 22.5392 393.25 22.2656C393.55 22.0124 393.917 21.8528 394.308 21.8064C394.996 21.7295 395.692 21.8608 396.307 22.1835L396.351 22.2071V20.0879L396.256 20.0621C395.641 19.8634 394.996 19.7783 394.351 19.811C393.763 19.8261 393.185 19.959 392.65 20.2023C392.109 20.4517 391.632 20.8225 391.256 21.286C390.685 22.0141 390.368 22.9114 390.354 23.8391C390.34 24.767 390.63 25.6734 391.18 26.4182C391.736 27.1345 392.517 27.6399 393.395 27.8521C394.32 28.0788 395.29 28.0442 396.197 27.7534L396.351 27.7109ZM401.312 22.2796C401.523 22.1061 401.766 21.9765 402.029 21.8984C402.289 21.8202 402.564 21.7951 402.835 21.8244C403.107 21.8536 403.37 21.9367 403.61 22.0688C403.848 22.201 404.059 22.3795 404.229 22.5943C404.4 22.8089 404.525 23.0554 404.601 23.3195C404.676 23.5836 404.698 23.8602 404.666 24.1329C404.634 24.4058 404.55 24.6696 404.416 24.9091C404.282 25.1486 404.103 25.3591 403.888 25.5284C403.46 25.8621 402.917 26.0126 402.379 25.9476C401.841 25.8826 401.35 25.6071 401.012 25.1808C400.673 24.7545 400.516 24.2113 400.572 23.6687C400.628 23.126 400.894 22.6271 401.312 22.28V22.2796ZM398.437 23.9013C398.447 24.5181 398.592 25.1253 398.863 25.6786C399.135 26.2318 399.525 26.7173 400.006 27.1C400.488 27.4825 401.047 27.7527 401.644 27.8906C402.241 28.0286 402.863 28.0309 403.461 27.8975C404.264 27.7453 405.003 27.3503 405.579 26.7652C406.154 26.1801 406.539 25.4325 406.683 24.6219C406.826 23.8112 406.721 22.9758 406.381 22.2267C406.042 21.4775 405.484 20.8501 404.782 20.4278C404.158 20.0393 403.443 19.8237 402.71 19.8029C401.978 19.7822 401.252 19.9571 400.608 20.3098C399.963 20.6625 399.424 21.1805 399.041 21.8114C398.661 22.442 398.453 23.1631 398.437 23.9013Z" fill="#C6D2D9"/>
<g clip-path="url(#clip2_13961_93783)">
<path d="M489.721 10.0014V19.3935C489.721 20.004 490.022 20.3175 490.637 20.3487C490.644 20.3493 493.731 20.3493 493.731 20.3493V21.403C493.731 21.5206 493.668 21.6033 493.537 21.6033H488.527C486.979 21.6033 486.75 20.7512 486.75 19.9773V10.6399C486.75 10.1992 486.918 9.99061 487.439 10.0021L489.721 10.0014Z" fill="#C6D2D9"/>
<path d="M483.954 10.0015L483.955 20.9917C483.955 21.4807 483.747 21.6034 483.331 21.6034H480.98V10.6082C480.98 10.2457 481.119 10.0022 481.646 10.0022L483.954 10.0015Z" fill="#C6D2D9"/>
<path d="M434.801 11.6005C434.801 10.716 434.803 9.99998 436.256 9.99998H442.643V11.1166C442.643 11.1961 442.605 11.268 442.494 11.268L438.666 11.2667C438.152 11.2667 437.893 11.5134 437.893 12.0323V14.9784H442.397L442.397 16.1484C442.397 16.2521 442.332 16.3068 442.231 16.3068H437.893V20.9812C437.884 21.432 437.658 21.6114 437.164 21.6025H434.801V11.6005Z" fill="#C6D2D9"/>
<path d="M447.248 10.0003V18.8437C447.248 19.6029 447.355 20.1352 447.888 20.4429C448.602 20.8563 449.812 20.8626 450.54 20.4544C451.038 20.1765 451.228 19.7301 451.228 18.8462V10.5898C451.228 10.2184 451.369 10.0003 451.888 10.0003H454.2L454.2 18.5823C454.2 20.5758 452.945 21.3936 451.836 21.6969C450.359 22.0994 448.116 22.1058 446.723 21.6874C445.058 21.1863 444.281 20.2007 444.279 18.583L444.277 10.5962C444.277 10.2108 444.416 10.0003 444.859 10.0003H447.248Z" fill="#C6D2D9"/>
<path d="M503.476 10.0022C502.89 10.0022 502.555 10.2756 502.423 10.799L500.53 18.7991L500.478 18.7978L498.523 10.0022H495.85C495.334 10.0022 495.172 10.2673 495.172 10.6769V21.6034H496.301C496.483 21.6034 496.558 21.5131 496.558 21.3281V12.1668H496.737L499.154 21.6034H500.737C501.333 21.6034 501.555 21.3586 501.702 20.7691L503.872 12.1668H504.047L504.046 21.6034L506.158 21.6002C506.676 21.6002 506.913 21.4012 506.913 20.8918V10.0015L503.476 10.0022Z" fill="#C6D2D9"/>
<path d="M468.332 16.3064H465.359V21.6034H467.71C468.124 21.6034 468.332 21.4819 468.332 20.9917C468.332 20.9917 468.332 18.726 468.332 16.3064Z" fill="#C6D2D9"/>
<path d="M468.158 14.0428C468.262 13.9582 468.323 13.8947 468.331 13.7128V10.0024H466.023C465.504 10.0024 465.359 10.2561 465.359 10.6173V16.2347L468.158 14.0428Z" fill="#C6D2D9"/>
<path d="M457.969 20.6856C459.259 20.5031 459.689 19.7362 459.689 18.6056V10.6315C459.689 10.1546 459.947 10.0001 460.28 10.0001H462.661V17.5399C462.661 19.3941 462.27 20.3308 461.172 21.1212C460.601 21.5314 459.601 21.9994 457.435 21.9994C456.195 21.9994 455.644 21.9294 455.569 21.9123C455.464 21.8881 455.422 21.8239 455.422 21.733V20.7594C455.931 20.774 457.097 20.8096 457.969 20.6856Z" fill="#C6D2D9"/>
<path d="M472.837 10.0003C471.385 10.0003 471.385 10.7163 471.385 11.6009V14.5902C471.385 14.6519 471.358 14.6767 471.33 14.704L469.297 16.3058H471.385V21.6022H473.746C474.241 21.6117 474.466 21.4318 474.474 20.9815V16.3071H478.812C478.913 16.3071 478.979 16.2518 478.979 16.1488V14.9781H474.474V12.032C474.474 11.5138 474.734 11.2664 475.248 11.2664L479.076 11.2677C479.186 11.2677 479.225 11.1964 479.225 11.117V10.0003H472.837Z" fill="#C6D2D9"/>
</g>
<path fill-rule="evenodd" clip-rule="evenodd" d="M530.918 4H538.819V7.5889L542.409 4H553.652L544.684 12.9609L553.652 21.9128H542.409L538.819 18.333V21.9128H530.918V4Z" fill="#C6D2D9"/>
<path fill-rule="evenodd" clip-rule="evenodd" d="M532.241 25.824L533.868 24.2653H535.467L533.801 25.8434H533.819L535.672 27.9021H533.868L532.241 25.9914V27.9021H530.918V23.0402H532.241V25.824Z" fill="#C6D2D9"/>
<path fill-rule="evenodd" clip-rule="evenodd" d="M535.84 24.2653H537.113V24.9224C537.515 24.2563 538.054 24.139 538.535 24.139C539.083 24.139 539.475 24.4908 539.683 24.9531C540.015 24.3929 540.623 24.139 541.133 24.139C541.946 24.1286 542.644 24.6182 542.644 25.6966V27.9022H541.378V25.8435C541.378 25.3243 540.995 25.0784 540.672 25.0692C540.299 25.0692 539.877 25.4416 539.877 25.9028V27.9022H538.603V25.8435C538.603 25.4519 538.406 25.0692 537.946 25.0692C537.623 25.0692 537.153 25.3721 537.153 26.0985V27.9022H535.84V24.2653Z" fill="#C6D2D9"/>
<path fill-rule="evenodd" clip-rule="evenodd" d="M547.832 24.2654H549.096V25.0305C549.342 24.2756 550.038 24.139 550.89 24.2061V25.3437C550.42 25.305 550.028 25.3244 549.724 25.4519C549.41 25.5886 549.146 25.9119 549.146 26.2661V27.9022H547.832V24.2654Z" fill="#C6D2D9"/>
<path fill-rule="evenodd" clip-rule="evenodd" d="M551.172 23.0402H552.477V24.1969H553.554V25.3436H552.477V26.5995C552.477 27.0778 552.827 27.1278 553.554 26.9901V27.8543C552.211 28.1288 551.172 27.9613 551.172 26.5596V23.0402Z" fill="#C6D2D9"/>
<path fill-rule="evenodd" clip-rule="evenodd" d="M554.781 27.2257H554.938L555.095 27.7472L555.262 27.2257H555.429V27.8736H555.322V27.3441L555.155 27.8736H555.047L554.882 27.3441V27.8736H554.781V27.2257Z" fill="#C6D2D9"/>
<path fill-rule="evenodd" clip-rule="evenodd" d="M554.644 27.4124H554.536C554.536 27.3841 554.524 27.3533 554.496 27.3339C554.466 27.3146 554.438 27.3054 554.388 27.3054C554.359 27.3054 554.329 27.3054 554.3 27.3237C554.281 27.3441 554.27 27.3624 554.27 27.3841C554.27 27.4124 554.281 27.4307 554.3 27.441C554.319 27.4627 554.359 27.4809 554.429 27.4911C554.524 27.5196 554.584 27.54 554.622 27.5707C554.653 27.5992 554.663 27.6379 554.663 27.687C554.663 27.7473 554.644 27.7952 554.595 27.8349C554.546 27.8736 554.486 27.8929 554.408 27.8929C554.319 27.8929 554.26 27.8736 554.212 27.8349C554.162 27.7951 554.144 27.7359 554.133 27.6676H554.24C554.25 27.7063 554.26 27.7359 554.29 27.7655C554.319 27.7848 554.359 27.7951 554.417 27.7951C554.456 27.7951 554.486 27.7848 554.506 27.7757C554.536 27.7564 554.546 27.7359 554.546 27.7063C554.546 27.6972 554.546 27.687 554.536 27.6676C554.524 27.6562 554.515 27.6493 554.506 27.6379C554.486 27.6174 554.447 27.6083 554.388 27.589H554.359C554.29 27.5707 554.231 27.5401 554.202 27.5104C554.173 27.4808 554.153 27.4409 554.153 27.392C554.153 27.3441 554.183 27.2941 554.222 27.2667C554.271 27.2258 554.329 27.2167 554.408 27.2167C554.477 27.2167 554.536 27.2258 554.575 27.2667C554.622 27.3054 554.644 27.3533 554.644 27.4124Z" fill="#C6D2D9"/>
<path fill-rule="evenodd" clip-rule="evenodd" d="M547.269 27.902H546.015V27.344C545.731 27.7062 545.279 28 544.612 28C543.857 28 543.043 27.7654 543.063 26.8135C543.063 25.4312 545.054 25.6179 545.983 25.5986C545.983 25.1466 545.75 24.8824 545.279 24.8824C544.897 24.8824 544.613 25.0691 544.613 25.2832H543.297C543.297 24.5408 544.24 24.1389 545.298 24.1389C546.612 24.1389 547.269 24.6091 547.269 25.5303V27.902H547.269ZM545.983 26.3034C545.582 26.3239 544.24 26.1576 544.24 26.8055C544.24 27.0686 544.467 27.2166 544.838 27.2166C545.357 27.2074 545.965 26.875 545.983 26.3034Z" fill="#C6D2D9"/>
<g clip-path="url(#clip3_13961_93783)">
<path d="M589.578 8.76532C589.434 8.93886 589.353 9.13263 589.353 9.46958V18.7342H589.302C589.302 18.7342 584.231 9.69373 583.986 9.2758C583.813 8.97934 583.619 8.77543 583.364 8.62215C583.108 8.4797 582.843 8.38788 582.333 8.38788H580.66C580.272 8.38788 580.027 8.52019 579.854 8.72482C579.711 8.89763 579.629 9.09214 579.629 9.42837V22.5607C579.629 22.8976 579.711 23.0914 579.854 23.265C580.027 23.4689 580.272 23.6012 580.66 23.6012H581.609C581.996 23.6012 582.241 23.4689 582.415 23.265C582.557 23.0914 582.639 22.8976 582.639 22.5607V13.0712H582.69C582.69 13.0712 587.955 22.3973 588.17 22.7443C588.465 23.2339 588.965 23.6012 589.68 23.6012H591.302C591.69 23.6012 591.935 23.4689 592.108 23.265C592.251 23.0914 592.332 22.8976 592.332 22.5607V10.714H613.648C613.862 10.714 614.025 10.6532 614.148 10.5513C614.28 10.4284 614.342 10.265 614.342 10.0206V9.12252C614.342 8.8774 614.28 8.71398 614.148 8.59177C614.025 8.48982 613.862 8.42837 613.648 8.42837H590.384C589.996 8.42837 589.751 8.56142 589.578 8.76532ZM598.883 12.2751C595.343 12.2751 593.353 15.0408 593.353 17.9591C593.353 21.0712 595.486 23.8058 598.904 23.8058C600.608 23.8058 602.281 23.163 603.24 22.03C603.659 21.5404 603.996 20.8564 603.996 20.4385C603.996 20.2953 603.964 20.1731 603.883 20.0813C603.802 19.9793 603.679 19.9179 603.465 19.9179H601.822C601.495 19.9179 601.271 20.0401 601.108 20.2852C600.628 20.9895 599.934 21.3568 598.914 21.3568C597.383 21.3568 596.394 20.1934 596.322 18.9179H603.424C603.74 18.9179 603.964 18.8463 604.118 18.6937C604.291 18.5303 604.373 18.2953 604.373 17.8564C604.373 16.5202 603.954 15.1326 603.077 14.0712C602.179 12.9996 600.812 12.2751 598.883 12.2751ZM609.831 12.2751C607.036 12.2751 605.199 13.6019 605.199 15.7241C605.199 16.479 605.475 17.0914 605.924 17.5708C606.445 18.1326 607.189 18.5202 608.271 18.7957L610.607 19.3872C611.25 19.5506 611.821 19.7443 611.821 20.3054C611.821 21.1731 610.903 21.4689 609.924 21.4689C609.444 21.4689 608.944 21.377 608.536 21.1731C608.25 21.03 608.006 20.8261 607.832 20.5506C607.679 20.3156 607.628 20.142 607.393 20.0097C607.25 19.928 607.076 19.9179 606.842 19.9179H605.577C605.301 19.9179 605.169 19.9996 605.077 20.1117C604.985 20.2237 604.954 20.3871 604.954 20.5506C604.954 20.9584 605.097 21.4689 605.434 21.928C606.21 22.9685 607.832 23.8058 609.903 23.8058C611.944 23.8058 614.771 22.9584 614.771 20.2237C614.771 19.5202 614.566 18.9179 614.189 18.4284C613.709 17.8058 613.026 17.377 611.862 17.0813L609.546 16.4891C608.587 16.2447 608.138 16.0712 608.138 15.479C608.138 14.9078 608.648 14.4486 609.831 14.4486C610.526 14.4486 611.158 14.6019 611.567 15.0307C611.903 15.3879 611.842 15.5715 612.108 15.714C612.27 15.7957 612.454 15.7957 612.74 15.7957H613.893C614.076 15.7957 614.21 15.7653 614.311 15.6525C614.393 15.5607 614.444 15.4182 614.444 15.1832C614.444 14.6525 614.097 13.9692 613.485 13.4486C612.669 12.7443 611.383 12.2751 609.831 12.2751ZM616.189 12.6634H615.617C615.403 12.6634 615.24 12.7241 615.118 12.8261C614.985 12.949 614.923 13.1124 614.923 13.3568V14.061C614.923 14.3062 614.985 14.4689 615.118 14.5918C615.24 14.6937 615.403 14.7552 615.617 14.7552H616.189V19.8463C616.189 21.1522 616.546 21.9685 617.209 22.6222C617.821 23.2237 618.617 23.6012 620.005 23.6012H620.872C621.087 23.6012 621.249 23.5404 621.372 23.4385C621.505 23.3156 621.586 23.1522 621.586 22.9078V22.0198C621.586 21.7747 621.505 21.612 621.372 21.4891C621.249 21.3872 621.087 21.3257 620.872 21.3257H620.75C620.199 21.3257 619.821 21.1832 619.566 20.9381C619.26 20.6525 619.107 20.2136 619.107 19.6424V14.7552H620.964C621.178 14.7552 621.342 14.6937 621.464 14.5918C621.596 14.4689 621.658 14.3062 621.658 14.061V13.3568C621.658 13.1124 621.596 12.949 621.464 12.8261C621.342 12.7241 621.178 12.6634 620.964 12.6634H619.117V9.33654C619.117 9.07118 619.035 8.87739 618.913 8.72482C618.76 8.54117 618.546 8.42837 618.23 8.42837H617.076C616.76 8.42837 616.546 8.54117 616.392 8.72482C616.27 8.87739 616.189 9.07118 616.189 9.33654V12.6634ZM622.434 22.693C622.434 22.9584 622.515 23.1522 622.638 23.3054C622.79 23.4891 623.005 23.6012 623.321 23.6012H624.535C624.852 23.6012 625.066 23.4891 625.219 23.3054C625.341 23.1522 625.423 22.9584 625.423 22.693V9.33727C625.423 9.0719 625.341 8.87812 625.219 8.72482C625.066 8.54117 624.852 8.42837 624.535 8.42837H623.321C623.005 8.42837 622.79 8.54117 622.638 8.72482C622.515 8.87812 622.434 9.0719 622.434 9.33727V22.693ZM596.343 16.7443C596.475 15.4891 597.434 14.5506 598.894 14.5506C600.322 14.5506 601.311 15.4891 601.445 16.7443H596.343ZM636.473 10.714C636.687 10.714 636.851 10.6532 636.973 10.5513C637.106 10.4284 637.168 10.265 637.168 10.0206V9.07117C637.168 8.70385 637.096 8.5202 636.973 8.38788C636.861 8.26496 636.677 8.19409 636.473 8.19409C636.31 8.19409 636.147 8.21435 635.872 8.24471L627.729 9.05093C627.494 9.07119 627.382 9.14276 627.301 9.23459C627.209 9.33654 627.168 9.46958 627.168 9.65323V10.1833C627.168 10.3879 627.209 10.4797 627.28 10.5614C627.371 10.6634 627.505 10.714 627.688 10.714H636.473ZM631.974 12.2751C628.433 12.2751 626.443 15.0408 626.443 17.9591C626.443 21.0712 628.576 23.8058 631.994 23.8058C633.698 23.8058 635.371 23.163 636.33 22.03C636.749 21.5404 637.086 20.8564 637.086 20.4385C637.086 20.2953 637.055 20.1731 636.973 20.0813C636.892 19.9793 636.769 19.9179 636.555 19.9179H634.912C634.586 19.9179 634.361 20.0401 634.198 20.2852C633.719 20.9895 633.024 21.3568 632.004 21.3568C630.473 21.3568 629.484 20.1934 629.413 18.9179H636.535C636.851 18.9179 637.076 18.8463 637.228 18.6937C637.402 18.5303 637.484 18.2953 637.484 17.8564C637.484 16.5202 637.065 15.1326 636.188 14.0712C635.29 12.9996 633.902 12.2751 631.974 12.2751ZM629.433 16.7443C629.566 15.4891 630.525 14.5506 631.984 14.5506C633.413 14.5506 634.402 15.4891 634.535 16.7443H629.433Z" fill="#C6D2D9"/>
</g>
<g clip-path="url(#clip4_13961_93783)">
<path d="M711.858 4H661.676V28H711.858V4Z" fill="#C6D2D9"/>
<path d="M669.693 18.3072C669.67 17.9039 669.67 17.4996 669.693 17.0963L670.239 10.5509H672.339L671.793 17.1509C671.668 18.58 672.219 19.5945 673.615 19.5945C675.012 19.5945 675.797 18.5581 675.928 17.2927L676.49 10.5454H678.579L678.033 17.2109C677.804 19.78 676.135 21.7 673.435 21.7C671.335 21.7 669.977 20.309 669.721 18.3072" fill="white"/>
<path d="M679.071 16.0927C679.349 12.9509 681.427 10.3491 685.011 10.3491C685.992 10.3339 686.954 10.6173 687.771 11.1618L687.531 13.7582C687.225 13.3265 686.814 12.9808 686.336 12.7544C685.859 12.528 685.331 12.4284 684.803 12.4655C682.567 12.4655 681.345 14.0473 681.171 16.0491C680.996 18.0509 681.983 19.5836 684.149 19.5836C684.715 19.5853 685.275 19.4659 685.792 19.2335C686.308 19.0012 686.769 18.6612 687.143 18.2364L686.925 20.9091C686.035 21.4288 685.026 21.7106 683.996 21.7273C680.445 21.7273 678.82 19.0382 679.087 16.0982" fill="white"/>
<path d="M689.455 10.5454H691.549L690.78 19.4363H693.785C693.993 19.4363 694.713 19.4363 694.876 19.4363C694.876 19.5454 694.685 21.4927 694.685 21.4927H688.5L689.455 10.5454Z" fill="white"/>
<path d="M700.367 14.631C700.432 14.4826 700.485 14.3294 700.526 14.1728H700.558C700.571 14.3296 700.598 14.4848 700.64 14.6364C700.755 15.1328 701.567 17.9091 701.567 17.9091H698.922C698.922 17.9091 700.34 14.7182 700.367 14.6364M700.913 10.0601H700.766L695.027 21.4546H697.253L698.06 19.7201H702.096L702.587 21.4546H704.824L700.913 10.0601Z" fill="white"/>
</g>
<g clip-path="url(#clip5_13961_93783)">
<path d="M738.445 24.4817C737.67 24.2467 737.33 24.0975 737.33 23.6541C737.33 23.2572 737.859 23.1164 738.312 23.1164C738.707 23.1164 739.133 23.2341 739.422 23.4234C739.491 23.4678 739.575 23.4814 739.653 23.4596C739.732 23.4386 739.798 23.3841 739.835 23.3113L739.966 23.0479C740.031 22.918 739.989 22.7601 739.867 22.6803C739.451 22.4082 738.86 22.2394 738.325 22.2394C737.202 22.2394 736.446 22.8163 736.446 23.675C736.446 24.7905 737.389 25.0726 738.145 25.2998C738.937 25.5371 739.283 25.6897 739.279 26.1611C739.279 26.6342 738.722 26.8026 738.201 26.8026C737.701 26.8026 737.158 26.537 736.828 26.2322C736.762 26.1715 736.677 26.1367 736.589 26.1467C736.5 26.1567 736.422 26.2077 736.376 26.2845L736.224 26.5409C736.156 26.6539 736.175 26.7982 736.269 26.8906C736.759 27.373 737.496 27.673 738.194 27.673C739.371 27.673 740.162 27.062 740.162 26.1563C740.171 25.0055 739.214 24.715 738.445 24.4817Z" fill="#C6D2D9"/>
<path d="M743.635 22.4199C743.588 22.3183 743.487 22.2529 743.375 22.2529H743.063C742.951 22.2529 742.849 22.3183 742.803 22.4208L740.608 27.2608C740.568 27.3498 740.575 27.4523 740.627 27.5343C740.68 27.6167 740.771 27.6655 740.868 27.6655H741.186C741.299 27.6655 741.401 27.5997 741.447 27.4972L741.994 26.2875H744.458L745.012 27.4985C745.059 27.6001 745.16 27.6655 745.272 27.6655H745.591C745.688 27.6655 745.779 27.6158 745.831 27.5338C745.884 27.4523 745.891 27.3494 745.851 27.26L743.635 22.4199ZM742.378 25.4241L743.217 23.5642L744.065 25.4241H742.378Z" fill="#C6D2D9"/>
<path d="M747.287 22.2533H746.997C746.839 22.2533 746.711 22.3815 746.711 22.5394V27.3795C746.711 27.5378 746.839 27.6655 746.997 27.6655H747.287C747.445 27.6655 747.574 27.5378 747.574 27.3795V22.5394C747.574 22.3815 747.445 22.2533 747.287 22.2533Z" fill="#C6D2D9"/>
<path d="M753.319 22.2535H753.035C752.876 22.2535 752.749 22.3817 752.749 22.5395V26.0648L750.032 22.3699C749.978 22.2962 749.892 22.2535 749.801 22.2535H749.462C749.304 22.2535 749.176 22.3817 749.176 22.5395V27.3796C749.176 27.5379 749.304 27.6656 749.462 27.6656H749.752C749.911 27.6656 750.039 27.5379 750.039 27.3796V23.856L752.749 27.5497C752.802 27.6225 752.888 27.6656 752.98 27.6656H753.319C753.477 27.6656 753.605 27.5379 753.605 27.3796V22.5395C753.605 22.3817 753.477 22.2535 753.319 22.2535Z" fill="#C6D2D9"/>
<path d="M758.318 22.2533H754.758C754.6 22.2533 754.473 22.3815 754.473 22.5394V22.8237C754.473 22.9811 754.6 23.1094 754.758 23.1094H756.107V27.3795C756.107 27.5378 756.235 27.6655 756.393 27.6655H756.683C756.842 27.6655 756.97 27.5378 756.97 27.3795V23.1094H758.318C758.476 23.1094 758.604 22.9811 758.604 22.8237V22.5394C758.604 22.3815 758.476 22.2533 758.318 22.2533Z" fill="#C6D2D9"/>
<path d="M760.448 24.8916H758.903C758.745 24.8916 758.617 25.0194 758.617 25.1777V25.4131C758.617 25.5714 758.745 25.6992 758.903 25.6992H760.448C760.606 25.6992 760.733 25.5714 760.733 25.4131V25.1777C760.733 25.0194 760.606 24.8916 760.448 24.8916Z" fill="#C6D2D9"/>
<path d="M766.46 24.718H766.197C766.196 24.718 766.194 24.7184 766.192 24.7184H765.333C765.175 24.7184 765.047 24.8466 765.047 25.0045V25.2954C765.047 25.4532 765.175 25.5814 765.333 25.5814H765.911V26.4662C765.574 26.6974 765.169 26.8229 764.757 26.8229C763.689 26.8229 762.82 25.9857 762.82 24.9561C762.82 23.93 763.689 23.0953 764.757 23.0953C765.253 23.0953 765.741 23.278 766.096 23.5968C766.155 23.6492 766.232 23.6758 766.31 23.6692C766.389 23.6631 766.461 23.6247 766.51 23.5637L766.683 23.3491C766.779 23.2292 766.765 23.0548 766.649 22.9536C766.129 22.4979 765.457 22.2458 764.757 22.2458C763.213 22.2458 761.957 23.4612 761.957 24.9561C761.957 26.454 763.207 27.672 764.743 27.672C765.438 27.672 766.131 27.4173 766.648 26.973C766.71 26.9189 766.747 26.8395 766.747 26.7558V25.0041C766.747 24.8466 766.618 24.718 766.46 24.718Z" fill="#C6D2D9"/>
<path d="M770.515 22.2458C768.976 22.2458 767.723 23.4612 767.723 24.9557C767.723 26.454 768.976 27.672 770.515 27.672C772.055 27.672 773.308 26.454 773.308 24.9557C773.308 23.4612 772.055 22.2458 770.515 22.2458ZM770.515 26.816C769.455 26.816 768.592 25.9813 768.592 24.9557C768.592 23.9335 769.455 23.1023 770.515 23.1023C771.575 23.1023 772.438 23.9335 772.438 24.9557C772.438 25.9813 771.575 26.816 770.515 26.816Z" fill="#C6D2D9"/>
<path d="M777.894 24.8061C778.185 24.5554 778.347 24.186 778.347 23.7369C778.347 22.8215 777.659 22.2529 776.551 22.2529H774.571C774.413 22.2529 774.285 22.3811 774.285 22.539V27.3795C774.285 27.5373 774.413 27.6655 774.571 27.6655H776.565C777.833 27.6655 778.589 27.072 778.589 26.0782C778.589 25.5156 778.335 25.0682 777.894 24.8061ZM776.544 24.4481H775.148V23.1094H776.544C776.973 23.1094 777.484 23.224 777.484 23.7718C777.484 24.2205 777.168 24.4481 776.544 24.4481ZM775.148 25.3042H776.544C776.986 25.3042 777.726 25.4001 777.726 26.0429C777.726 26.6765 777.084 26.8095 776.544 26.8095H775.148V25.3042Z" fill="#C6D2D9"/>
<path d="M782.096 22.4199C782.05 22.3183 781.948 22.2529 781.836 22.2529H781.525C781.412 22.2529 781.31 22.3183 781.263 22.4208L779.068 27.2608C779.028 27.3498 779.036 27.4523 779.089 27.5343C779.142 27.6167 779.232 27.6655 779.33 27.6655H779.648C779.761 27.6655 779.863 27.5997 779.909 27.4972L780.456 26.2875H782.919L783.473 27.4985C783.52 27.6001 783.622 27.6655 783.733 27.6655H784.052C784.149 27.6655 784.24 27.6158 784.292 27.5338C784.345 27.4523 784.352 27.3494 784.312 27.26L782.096 22.4199ZM780.839 25.4241L781.678 23.5642L782.527 25.4241H780.839Z" fill="#C6D2D9"/>
<path d="M785.753 22.2535H785.462C785.304 22.2535 785.176 22.3817 785.176 22.5395V27.3796C785.176 27.5379 785.304 27.6656 785.462 27.6656H785.753C785.911 27.6656 786.04 27.5379 786.04 27.3796V22.5395C786.04 22.3817 785.911 22.2535 785.753 22.2535Z" fill="#C6D2D9"/>
<path d="M791.788 22.2535H791.504C791.346 22.2535 791.218 22.3817 791.218 22.5395V26.0648L788.501 22.3699C788.447 22.2962 788.361 22.2535 788.27 22.2535H787.931C787.773 22.2535 787.645 22.3817 787.645 22.5395V27.3796C787.645 27.5379 787.773 27.6656 787.931 27.6656H788.222C788.38 27.6656 788.508 27.5379 788.508 27.3796V23.856L791.218 27.5497C791.272 27.6225 791.357 27.6656 791.448 27.6656H791.788C791.946 27.6656 792.074 27.5379 792.074 27.3796V22.5395C792.074 22.3817 791.946 22.2535 791.788 22.2535Z" fill="#C6D2D9"/>
<path d="M767.598 14.6581V19.4166H766.722V14.0036L767.598 14.6581ZM784.582 19.4009H781.135L781.111 19.3769L778.08 16.3789C777.956 16.2568 777.766 16.2193 777.605 16.2864C777.442 16.3545 777.337 16.5123 777.337 16.6889V19.4166H776.436V12.6665C776.436 12.547 776.386 12.4315 776.299 12.3495L773.781 9.97112C773.7 9.89437 773.593 9.85206 773.481 9.85206H772.222C771.982 9.85206 771.786 10.0479 771.786 10.2881V19.4166H770.892V4.76169C770.892 4.58377 770.786 4.42548 770.621 4.35832C770.46 4.29204 770.266 4.33215 770.145 4.45556L765.975 8.68773C765.893 8.76971 765.849 8.87873 765.849 8.99385V12.2632L764.141 10.9881C763.986 10.8725 763.758 10.8764 763.608 10.9972L759.725 14.11C759.621 14.1932 759.562 14.3175 759.562 14.4505V19.4166H758.682V16.6793C758.682 15.7182 758.02 14.6965 756.794 14.6965C755.567 14.6965 754.906 15.723 754.906 16.6889V19.4166L754.016 19.4162V17.5594C754.016 16.8067 753.498 16.0073 752.538 16.0073C751.577 16.0073 751.059 16.8075 751.059 17.5611V19.4171L750.173 19.4175L750.172 19.3351C750.171 18.9609 750.17 18.4817 750.17 18.2894C750.17 17.6501 749.566 17.0897 748.878 17.0897C748.19 17.0897 747.586 17.6474 747.586 18.2837V19.4166L743.698 19.4162C743.458 19.4162 743.262 19.612 743.262 19.8523C743.262 19.9691 743.307 20.0786 743.389 20.161C743.472 20.2434 743.581 20.2888 743.698 20.2888L748.022 20.2892C748.139 20.2892 748.249 20.2439 748.331 20.1614C748.413 20.079 748.459 19.9696 748.459 19.8531V18.3626C748.459 18.2013 748.635 17.9619 748.878 17.9619C749.118 17.9619 749.298 18.1808 749.298 18.3766C749.298 18.4886 749.302 19.8558 749.302 19.8558C749.303 20.0956 749.499 20.2905 749.738 20.2905L751.496 20.2892C751.736 20.2892 751.932 20.0934 751.932 19.8531V17.5611C751.932 17.3252 752.058 16.8795 752.538 16.8795C753.017 16.8795 753.144 17.3239 753.144 17.5594V19.8518C753.144 20.0925 753.339 20.2883 753.579 20.2883L755.342 20.2892C755.457 20.2892 755.569 20.2426 755.65 20.1614C755.731 20.0803 755.778 19.9678 755.778 19.8531V16.6889C755.778 16.3017 755.99 15.5686 756.794 15.5686C757.539 15.5686 757.809 16.2328 757.809 16.6793V19.8531C757.809 20.0934 758.005 20.2892 758.245 20.2892H759.998C760.238 20.2892 760.434 20.0934 760.434 19.8531V14.6599L760.465 14.6346L763.89 11.889L765.849 13.352V19.8531C765.849 20.0934 766.045 20.2892 766.285 20.2892H768.034C768.274 20.2892 768.47 20.0934 768.47 19.8531V14.4392C768.47 14.3027 768.404 14.1719 768.295 14.0899L766.722 12.9147V9.17265L766.746 9.14823L770.02 5.82573V19.8531C770.02 20.0934 770.215 20.2892 770.456 20.2892H772.222C772.463 20.2892 772.658 20.0934 772.658 19.8531V10.7242H773.308L773.332 10.7469L775.564 12.8545V19.8531C775.564 20.0934 775.759 20.2892 776 20.2892H777.773C778.013 20.2892 778.209 20.0934 778.209 19.8531V17.7338L780.649 20.1471C780.732 20.2282 780.841 20.2731 780.956 20.2731H784.582C784.822 20.2731 785.018 20.0773 785.018 19.837C785.018 19.5963 784.822 19.4009 784.582 19.4009Z" fill="#C6D2D9"/>
</g>
<g clip-path="url(#clip6_13961_93783)">
<path d="M829.163 10.0005C828.047 9.9947 826.953 10.3106 826.012 10.9105C826.299 11.1326 826.559 11.3871 826.787 11.6689C827.516 11.2711 828.334 11.068 829.164 11.079C831.961 11.079 833.95 13.135 833.95 15.9998C833.95 18.8479 831.961 20.887 829.164 20.887C826.4 20.887 824.411 18.8479 824.411 15.9998C824.403 15.1838 824.581 14.3766 824.934 13.6405C824.73 13.3186 824.467 13.0384 824.158 12.8148C823.57 13.7727 823.261 14.8757 823.265 15.9998C823.265 19.4713 825.742 21.9992 829.163 21.9992C832.55 21.9992 835.095 19.4208 835.095 15.9998C835.095 12.5788 832.551 10.0005 829.163 10.0005ZM843.825 17.2974C843.828 17.7811 843.766 18.263 843.64 18.73C843.235 20.1118 842.089 20.8871 840.555 20.8871C839.039 20.8871 837.893 20.1118 837.488 18.73C837.362 18.263 837.3 17.7811 837.303 17.2974V10.2364H836.157V17.4154C836.158 18.0197 836.243 18.6209 836.41 19.2018C836.966 20.9544 838.415 21.9993 840.572 21.9993C842.73 21.9993 844.162 20.9208 844.735 19.1681C844.887 18.6962 844.971 17.9714 844.971 17.3818V10.2364H843.825V17.2974ZM823.855 20.2297C823.542 20.3685 823.214 20.4703 822.878 20.5331C822.272 20.6471 821.657 20.698 821.041 20.6851H817.552V11.2982H821.041C821.657 11.2852 822.272 11.3361 822.878 11.4501C825.085 11.922 826.299 13.5229 826.299 16.0002C826.314 16.8115 826.153 17.6165 825.827 18.3595C826.033 18.6888 826.289 18.9844 826.585 19.2359C827.141 18.3259 827.444 17.2137 827.444 16.0003C827.444 13.0007 825.86 11.012 823.164 10.4222C822.521 10.289 821.866 10.2268 821.209 10.2369H816.406V21.7635H821.209C821.865 21.7789 822.52 21.7223 823.164 21.5949C823.668 21.4874 824.156 21.3117 824.613 21.0726C824.318 20.8332 824.062 20.5487 823.855 20.2297ZM878.574 15.5785L877.361 14.9887C876.329 14.4871 875.743 13.8674 875.743 12.8993C875.743 11.8208 876.485 11.0456 877.647 11.0456C878.844 11.0456 879.518 11.8882 879.703 13.2195H880.782C880.579 10.995 879.282 10.0008 877.648 10.0008C875.844 10.0008 874.597 11.2984 874.597 12.9499C874.597 14.4578 875.51 15.4184 876.94 16.084L878.17 16.6572C879.046 17.0616 879.838 17.7188 879.838 18.8986C879.838 20.0783 878.995 20.8872 877.749 20.8872C876.4 20.8872 875.423 20.1119 875.221 18.2755H874.074C874.26 20.8202 875.709 21.9998 877.731 21.9998C879.702 21.9998 881.017 20.6853 881.017 18.8484C881.017 17.0116 879.821 16.1852 878.574 15.5785ZM868.547 10.2364L864.081 21.7633H865.362L866.727 18.1069H871.479L872.861 21.7633H874.176L869.693 10.2364H868.547ZM871.075 17.0277H867.131L868.463 13.4886C868.699 12.8651 868.901 12.2416 869.103 11.6177C869.307 12.2465 869.526 12.8703 869.76 13.4886L871.075 17.0277ZM859.767 10.2364H858.621V21.7633H863.239L863.694 20.6847H859.767V10.2364ZM850.802 16.4718V17.5501H856.245C855.824 19.5555 854.155 20.8868 851.948 20.8868C849.15 20.8868 847.212 18.8406 847.212 15.9829C847.212 13.1349 849.184 11.0789 851.948 11.0789C853.801 11.0789 855.318 12.0394 855.992 13.6906H857.222C856.514 11.4156 854.442 10 851.948 10C848.577 10 846.066 12.5783 846.066 15.9825C846.066 19.4978 848.493 21.9988 851.948 21.9988C855.217 21.9988 857.559 19.6395 857.526 16.4714L850.802 16.4718Z" fill="#C6D2D9"/>
</g>
<g clip-path="url(#clip7_13961_93783)">
<path d="M911.947 8.61926C911.38 8.29963 910.714 8.13961 909.948 8.13961H905.016V20.3448H907.159V15.6631H909.948C910.714 15.6631 911.38 15.5035 911.947 15.1835C912.514 14.8639 912.947 14.4206 913.248 13.8542C913.548 13.2877 913.699 12.638 913.699 11.9056C913.699 11.1731 913.548 10.5222 913.248 9.95259C912.947 9.38293 912.513 8.93849 911.947 8.61886V8.61926ZM911.334 12.8517C911.204 13.1337 911.004 13.3573 910.735 13.5229C910.466 13.6885 910.127 13.7714 909.719 13.7714H907.159V10.0314H909.719C910.32 10.0314 910.772 10.2074 911.075 10.559C911.379 10.9107 911.53 11.3595 911.53 11.906C911.53 12.2548 911.465 12.5701 911.335 12.8521L911.334 12.8517ZM929.343 11.5571L925.755 21.7397C925.494 22.4834 925.151 23.0299 924.726 23.3787C924.3 23.7271 923.77 23.9015 923.135 23.9015H922.043V22.2018H922.982C923.277 22.2018 923.521 22.0957 923.714 21.8838C923.906 21.6713 924.247 20.772 924.332 20.4844L921.154 11.5571H923.229L925.287 17.8602C925.423 17.3429 927.305 11.5571 927.305 11.5571H929.344H929.343ZM935.62 15.9988C935.982 16.3736 936.164 16.9476 936.164 17.7205C936.164 18.2554 936.027 18.7318 935.751 19.1503C935.476 19.5687 935.106 19.8959 934.642 20.1312C934.177 20.3664 933.672 20.4844 933.128 20.4844H932.431C931.869 20.4844 931.346 20.3736 930.861 20.1532C930.377 19.9324 929.983 19.6275 929.709 19.1943C929.427 18.7486 929.295 18.1542 929.284 17.6077H931.257C931.291 17.9621 931.351 18.4014 931.593 18.6102C931.864 18.8451 932.135 18.9067 932.447 18.9067H933.026C933.343 18.9067 933.609 18.8255 933.825 18.6626C934.04 18.4998 934.148 18.247 934.148 17.9041C934.148 17.6137 934.066 17.3885 933.901 17.2285C933.737 17.0689 933.485 16.9569 933.144 16.8928L931.503 16.5616C930.817 16.422 930.294 16.1388 929.934 15.7115C929.574 15.2843 929.394 14.7426 929.394 14.0858C929.394 13.5745 929.527 13.1153 929.793 12.7085C930.06 12.3016 930.417 11.988 930.865 11.7668C931.313 11.5459 931.795 11.4355 932.311 11.4355H932.966C933.487 11.4355 933.972 11.5431 934.42 11.758C934.868 11.9732 935.231 12.2768 935.508 12.6688C935.786 13.0613 935.931 13.7746 935.942 14.2858H934.02C933.997 13.9838 933.947 13.5541 933.701 13.3145C933.466 13.0849 933.215 13.0045 932.931 13.0045H932.378C932.089 13.0045 931.851 13.0845 931.664 13.2441C931.477 13.4041 931.383 13.6233 931.383 13.9022C931.383 14.129 931.461 14.3266 931.617 14.495C931.773 14.6635 932.001 14.7798 932.301 14.8438L933.977 15.2015C934.708 15.3587 935.255 15.6243 935.618 15.9992L935.62 15.9988ZM944.049 18.405C943.981 18.3094 943.947 18.1626 943.947 17.965V14.6958C943.947 14.0858 943.819 13.5293 943.564 13.0265C943.309 12.5241 942.941 12.13 942.459 11.8452C941.977 11.5603 941.41 11.4179 940.757 11.4179H940.137C939.558 11.4179 939.02 11.5415 938.521 11.7884C938.021 12.0356 937.613 12.3856 937.296 12.8389C936.978 13.2921 936.848 13.7049 936.803 14.2862H938.801C938.83 13.8794 938.92 13.647 939.175 13.4145C939.43 13.1821 939.762 13.0833 940.137 13.0833H940.757C940.973 13.0833 941.174 13.1489 941.361 13.2793C941.548 13.4101 941.696 13.5933 941.803 13.8286C941.911 14.0638 941.965 14.327 941.965 14.6175V14.7922L939.694 15.1407C938.781 15.2919 938.051 15.5971 937.504 16.056C936.957 16.5152 936.683 17.1429 936.683 17.9389C936.683 18.4506 936.801 18.8983 937.036 19.2815C937.271 19.6651 937.604 19.9615 938.036 20.1708C938.466 20.38 938.965 20.4848 939.533 20.4848C940.139 20.4848 940.675 20.3628 941.14 20.1188C941.605 19.8747 941.948 19.5407 942.169 19.1163C942.192 19.5407 942.326 19.8515 942.573 20.0492C942.82 20.2468 943.155 20.3456 943.581 20.3456H944.916V18.6282C944.66 18.6282 944.469 18.6154 944.341 18.589C944.214 18.563 944.116 18.5022 944.048 18.4058L944.049 18.405ZM941.966 16.7008C941.966 17.1309 941.879 17.5117 941.706 17.8429C941.533 18.1742 941.289 18.4314 940.975 18.6146C940.66 18.7978 940.299 18.8891 939.89 18.8891C939.544 18.8891 939.261 18.7935 939.04 18.6014C938.819 18.4098 938.708 18.1598 938.708 17.8518C938.708 17.4681 938.832 17.1877 939.078 17.0105C939.325 16.8333 939.706 16.698 940.222 16.6052L941.965 16.274V16.7012L941.966 16.7008ZM922.12 18.6274C921.865 18.6274 921.673 18.6146 921.546 18.5882C921.418 18.5622 921.32 18.5014 921.252 18.405C921.185 18.3094 921.15 18.1626 921.15 17.965V14.6958C921.15 14.0858 921.023 13.5293 920.767 13.0265C920.512 12.5241 920.144 12.13 919.662 11.8452C919.18 11.5603 918.613 11.4179 917.961 11.4179H917.34C916.762 11.4179 916.223 11.5415 915.724 11.7884C915.225 12.0356 914.817 12.3856 914.499 12.8389C914.182 13.2921 914.051 13.7049 914.006 14.2862H916.004C916.033 13.8794 916.123 13.647 916.379 13.4145C916.634 13.1821 916.966 13.0833 917.34 13.0833H917.961C918.176 13.0833 918.377 13.1489 918.564 13.2793C918.751 13.4101 918.899 13.5933 919.007 13.8286C919.114 14.0638 919.168 14.327 919.168 14.6175V14.7922L916.897 15.1407C915.985 15.2919 915.254 15.5971 914.707 16.056C914.16 16.5152 913.887 17.1429 913.887 17.9389C913.887 18.4506 914.004 18.8983 914.239 19.2815C914.475 19.6651 914.808 19.9615 915.239 20.1708C915.67 20.38 916.168 20.4848 916.736 20.4848C917.342 20.4848 917.878 20.3628 918.343 20.1188C918.808 19.8747 919.151 19.5407 919.372 19.1163C919.395 19.5407 919.529 19.8515 919.776 20.0492C920.023 20.2468 920.358 20.3456 920.784 20.3456H922.119V18.6282L922.12 18.6274ZM919.169 16.7008C919.169 17.1309 919.082 17.5117 918.909 17.8429C918.737 18.1742 918.493 18.4314 918.178 18.6146C917.863 18.7978 917.502 18.8891 917.094 18.8891C916.747 18.8891 916.464 18.7935 916.243 18.6014C916.022 18.4098 915.912 18.1598 915.912 17.8518C915.912 17.4681 916.035 17.1877 916.282 17.0105C916.528 16.8333 916.909 16.698 917.425 16.6052L919.169 16.274V16.7012L919.169 16.7008ZM950.354 13.2573H948.024V20.3448H946.026V13.2573H944.359V11.5571H946.026V10.7291C946.026 9.88658 946.233 9.24412 946.647 8.80248C947.06 8.36083 947.641 8.14001 948.39 8.14001H950.354V9.84018H948.994C948.664 9.84018 948.421 9.92898 948.262 10.1062C948.103 10.2834 948.024 10.555 948.024 10.9215V11.5579H950.354V13.2581V13.2573ZM956.486 11.9844C955.953 11.6067 955.352 11.4175 954.683 11.4175H954.028C953.393 11.4175 952.791 11.6019 952.221 11.9712C951.651 12.3404 951.19 12.8709 950.839 13.5621C950.487 14.2538 950.312 15.0415 950.312 15.9248C950.312 16.8081 950.475 17.5885 950.801 18.283C951.126 18.9775 951.577 19.5179 952.153 19.9043C952.728 20.2908 953.365 20.484 954.062 20.484H954.692C955.286 20.484 955.835 20.35 956.337 20.0828C956.839 19.8155 957.251 19.4479 957.575 18.9799C957.898 18.5122 958.087 17.9905 958.144 17.4149H956.239C956.165 17.7985 955.988 18.1198 955.708 18.3782C955.427 18.637 955.094 18.7662 954.708 18.7662H954.079C953.75 18.7662 953.451 18.6486 953.182 18.413C952.912 18.1778 952.698 17.8406 952.54 17.4017C952.43 17.0989 952.36 16.7628 952.325 16.3948H958.187C958.193 16.3336 958.221 15.84 958.221 15.6363C958.221 14.8695 958.065 14.163 957.753 13.5177C957.441 12.8729 957.019 12.3612 956.486 11.9836V11.9844ZM952.401 14.8875C952.441 14.7034 952.493 14.529 952.557 14.3646C952.727 13.929 952.949 13.5977 953.225 13.3709C953.499 13.1445 953.787 13.0309 954.088 13.0309H954.683C954.95 13.0309 955.199 13.1125 955.431 13.2749C955.664 13.4377 955.849 13.663 955.988 13.9506C956.127 14.2382 956.202 14.5506 956.213 14.8878H952.4L952.401 14.8875ZM983.064 14.3086V14.3158C983.064 14.3838 983.038 14.4494 982.991 14.4974L977.051 20.5864C977.028 20.6104 976.996 20.624 976.963 20.624H976.925C976.856 20.624 976.8 20.5664 976.8 20.4956V14.3158C976.8 14.3838 976.773 14.4494 976.726 14.4974L970.823 20.5488C970.776 20.5968 970.712 20.624 970.646 20.624H970.639C970.573 20.624 970.509 20.5968 970.462 20.5488L964.559 14.4974C964.512 14.4494 964.485 14.3838 964.485 14.3158V14.3086C964.485 14.2406 964.512 14.175 964.559 14.127L970.461 8.07521C970.508 8.0272 970.572 8 970.638 8H970.646C970.712 8 970.776 8.0272 970.822 8.07521L976.726 14.1266C976.772 14.1746 976.799 14.2402 976.799 14.3082V8.12841C976.799 8.05761 976.855 8 976.924 8H976.962C976.995 8 977.027 8.0136 977.05 8.0376L982.99 14.1266C983.037 14.1746 983.064 14.2402 983.064 14.3082L983.064 14.3086Z" fill="#C6D2D9"/>
</g>
</g>
<defs>
<clipPath id="clip0_13961_93783">
<rect width="982.123" height="32" fill="white" transform="translate(0.9375)"/>
</clipPath>
<clipPath id="clip1_13961_93783">
<rect width="72.1315" height="16" fill="white" transform="translate(104.93 8)"/>
</clipPath>
<clipPath id="clip2_13961_93783">
<rect width="72.1077" height="12" fill="white" transform="translate(434.812 10)"/>
</clipPath>
<clipPath id="clip3_13961_93783">
<rect width="58.243" height="16" fill="white" transform="translate(579.43 8)"/>
</clipPath>
<clipPath id="clip4_13961_93783">
<rect width="50.1818" height="24" fill="white" transform="translate(661.672 4)"/>
</clipPath>
<clipPath id="clip5_13961_93783">
<rect width="56.5468" height="24" fill="white" transform="translate(735.855 4)"/>
</clipPath>
<clipPath id="clip6_13961_93783">
<rect width="64.6106" height="12" fill="white" transform="translate(816.402 10)"/>
</clipPath>
<clipPath id="clip7_13961_93783">
<rect width="78.0488" height="16" fill="white" transform="translate(905.012 8)"/>
</clipPath>
</defs>
</svg>
